<svg width="721" height="966" viewBox="0 0 721 966" fill="none" xmlns="http://www.w3.org/2000/svg">
<path d="M209.969 580.857C208.133 581.129 205.972 581.272 205.535 583.458C205.196 585.152 205.325 586.896 206.34 588.366C208.076 590.878 210.654 592.344 213.759 591.826C216.536 591.363 220.349 588.847 220.349 585.723C220.349 583.961 219.08 582.188 218.03 580.869C216.905 579.456 215.933 577.97 214.516 576.814C212.605 575.255 211.062 575.102 209.344 576.94C208.404 577.946 207.515 579.318 207.103 580.635C206.9 581.284 207.049 581.804 207.049 582.455C207.049 583.322 206.888 582.043 207.049 581.614" stroke="#00ADB5" stroke-linecap="round" stroke-linejoin="round"/>
<path d="M219.484 585.822C221.047 587.209 222.371 588.463 225.134 588.531C227.068 588.579 229.001 588.096 230.814 587.576C232.112 587.204 236.273 585.234 232.901 585.074" stroke="#00ADB5" stroke-linecap="round" stroke-linejoin="round"/>
<path d="M235.595 573.72C233.533 575.997 230.687 580.458 231.756 583.878C232.132 585.081 232.678 585.89 233.384 586.918C234.805 588.985 237.008 588.341 239.007 587.801C240.455 587.409 242.177 586.176 242.731 584.773C243.496 582.837 241.901 579.811 240.569 578.478C239.08 576.989 237.901 575.179 236.243 573.876C235.802 573.529 235.467 573.154 234.892 573.281C234.245 573.425 233.979 574.044 234.838 574.044" stroke="#00ADB5" stroke-linecap="round" stroke-linejoin="round"/>
<path d="M381.355 261.724C379.519 261.996 377.359 262.139 376.922 264.325C376.583 266.02 376.711 267.763 377.727 269.233C379.462 271.745 382.041 273.211 385.146 272.693C387.922 272.231 391.736 269.715 391.736 266.59C391.736 264.828 390.467 263.055 389.417 261.736C388.292 260.323 387.319 258.837 385.903 257.681C383.992 256.123 382.449 255.97 380.731 257.808C379.79 258.813 378.901 260.185 378.49 261.502C378.287 262.151 378.436 262.671 378.436 263.322C378.436 264.189 378.275 262.91 378.436 262.481" stroke="#00ADB5" stroke-linecap="round" stroke-linejoin="round"/>
<path d="M390.871 266.689C392.433 268.076 393.758 269.331 396.52 269.398C398.455 269.446 400.388 268.963 402.201 268.443C403.499 268.071 407.659 266.101 404.288 265.941" stroke="#00ADB5" stroke-linecap="round" stroke-linejoin="round"/>
<path d="M406.981 254.587C404.92 256.864 402.074 261.325 403.143 264.745C403.519 265.948 404.064 266.758 404.771 267.785C406.192 269.852 408.395 269.208 410.393 268.668C411.842 268.276 413.563 267.043 414.118 265.64C414.883 263.704 413.288 260.678 411.955 259.345C410.467 257.857 409.288 256.046 407.63 254.743C407.189 254.397 406.854 254.021 406.278 254.149C405.632 254.292 405.365 254.912 406.224 254.912" stroke="#00ADB5" stroke-linecap="round" stroke-linejoin="round"/>
<path d="M223.21 195.535C233.796 190.491 242.353 182.153 250.958 174.289C257.721 168.109 264.813 162.002 272.277 156.668C273.75 155.616 275.83 153.498 277.821 154.401C279.794 155.295 280.931 157.731 282.49 159.173C286.33 162.724 289.783 167.064 292.94 171.237C296.415 175.832 291.204 178.374 287.982 181.382C284.322 184.799 280.827 188.323 276.83 191.338C273.03 194.204 269.978 198.153 266.499 201.398C261.198 206.342 256.24 211.606 250.954 216.556C247.808 219.502 244.197 221.907 241.167 224.958C240.106 226.027 239.124 227.44 237.899 228.331C236.916 229.045 235.555 226.296 235.204 225.778C232.426 221.668 228.121 218.857 225.4 214.558C223.689 211.855 222.538 208.519 220.49 206.051C219.513 204.873 217.069 202.22 218.14 200.499C219.233 198.742 222.337 197.899 224.03 196.641C225.35 195.66 226.955 194.448 228.457 193.766C229.549 193.27 230.621 192.391 231.597 191.714C234.167 189.933 231.444 190.694 229.706 191.356" stroke="#00ADB5" stroke-linecap="round" stroke-linejoin="round"/>
<path d="M224.828 203.605C231.272 207.595 237.053 213.368 242.084 219.062C242.211 219.206 243.436 220.06 243.249 220.375C242.889 220.985 238.706 218.233 238.306 217.957" stroke="#00ADB5" stroke-linecap="round" stroke-linejoin="round"/>
<path d="M231.215 197.838C236.44 199.334 239.553 202.181 243.772 205.226C245.651 206.583 247.565 207.808 249.251 209.403C250.043 210.152 250.607 211.139 251.339 211.946C252.342 213.054 248.246 210.661 247.764 210.385" stroke="#00ADB5" stroke-linecap="round" stroke-linejoin="round"/>
<path d="M238.809 193.365C242.465 196.665 246.14 199.919 249.911 203.086C251.344 204.289 252.97 205.394 254.207 206.811C256.403 209.326 253.527 206.062 252.55 205.141" stroke="#00ADB5" stroke-linecap="round" stroke-linejoin="round"/>
<path d="M243.93 190.221C246.642 191.869 249.474 193.467 251.771 195.69C252.713 196.602 253.494 197.677 254.501 198.522C255.742 199.563 256.829 200.777 258.077 201.789C259.856 203.229 260.123 203.65 258.011 201.842" stroke="#00ADB5" stroke-linecap="round" stroke-linejoin="round"/>
<path d="M250.535 185.377C253.527 187.718 256.296 190.096 258.798 192.953C259.906 194.218 260.799 195.678 262.205 196.648C263.494 197.538 264.397 197.794 262.888 196.35" stroke="#00ADB5" stroke-linecap="round" stroke-linejoin="round"/>
<path d="M256.891 180.443C259.525 182.423 262.122 184.23 264.227 186.779C265.19 187.947 265.95 189.288 267.026 190.365C269.211 192.551 267.708 191.449 266.128 189.965" stroke="#00ADB5" stroke-linecap="round" stroke-linejoin="round"/>
<path d="M262.754 175.322C266.452 178.86 269.55 183.004 273.255 186.499C275.75 188.852 272.175 185.082 271.591 184.412" stroke="#00ADB5" stroke-linecap="round" stroke-linejoin="round"/>
<path d="M269.914 171.253C273.027 169.982 276.257 168.467 277.93 165.361C278.391 164.504 278.985 163.759 279.175 162.793C279.435 161.468 279.384 162.036 278.402 162.894" stroke="#00ADB5" stroke-linecap="round" stroke-linejoin="round"/>
<path d="M274.93 175.528C277.399 173.238 280.157 170.736 281.966 167.829C282.868 166.379 284.586 164.609 282.184 166.706" stroke="#00ADB5" stroke-linecap="round" stroke-linejoin="round"/>
<path d="M282.843 180.331C285.092 177.887 287.093 175.614 289.163 173.059C289.831 172.233 291.869 171.162 289.418 171.817" stroke="#00ADB5" stroke-linecap="round" stroke-linejoin="round"/>
<path d="M281.051 179.094C283.404 177.077 286.066 174.728 287.932 172.181C288.429 171.502 288.812 170.745 289.268 170.039C290.031 168.857 290.079 169.256 288.922 169.377" stroke="#00ADB5" stroke-linecap="round" stroke-linejoin="round"/>
<path d="M231.183 207.679C242.91 202.916 245.803 189.988 255.359 182.676C256.522 181.787 257.466 180.798 258.822 180.182C259.728 179.771 260.847 179.574 261.673 179.047C262.176 178.726 266.355 175.533 263.451 176.852" stroke="#00ADB5" stroke-linecap="round" stroke-linejoin="round"/>
<path d="M225.723 204.221C227.039 202.621 228.207 201.251 229.877 200.094C230.151 199.904 230.573 199.872 230.798 199.618C231.245 199.116 231.92 198.382 232.092 197.734C232.769 195.183 236.078 195.655 237.835 194.375C239.506 193.159 241.115 191.927 242.819 190.724C244.696 189.4 245.565 188.238 247.072 186.541C248.457 184.982 249.801 183.405 251.267 181.929C252.466 180.721 254.351 179.623 255.114 178.078C255.976 176.333 258.177 174.337 260.159 174.66C260.84 174.771 265.841 177.67 262.572 175.817" stroke="#00ADB5" stroke-linecap="round" stroke-linejoin="round"/>
<path d="M236.333 210.455C245.145 205.807 250.036 195.673 255.988 188.017C258.18 185.198 261.313 183.324 263.608 180.553C264.589 179.368 266.757 178.109 264.236 178.13" stroke="#00ADB5" stroke-linecap="round" stroke-linejoin="round"/>
<path d="M239.482 213.325C247.467 208.416 252.579 199.283 258.389 192.046C261.032 188.753 263.583 185.391 266.258 182.125C267.478 180.636 269.605 179.706 266.875 181.231" stroke="#00ADB5" stroke-linecap="round" stroke-linejoin="round"/>
<path d="M242.623 218.45C247.606 213.591 251.628 208.348 255.705 202.727C258.184 199.31 260.327 195.468 263.238 192.391C264.908 190.626 266.194 188.558 267.71 186.686C268.321 185.932 268.742 185.054 269.37 184.306C270.784 182.622 269.798 184.146 268.814 185.059" stroke="#00ADB5" stroke-linecap="round" stroke-linejoin="round"/>
<path d="M243.796 220.581C246.275 218.152 249.908 215.814 251.562 212.664C252.163 211.52 253.649 208.758 254.691 208.058C256.069 207.133 256.725 205.164 257.728 203.926C258.773 202.637 259.795 201.379 260.928 200.153C261.991 199.003 262.331 196.985 263.646 195.996C265.112 194.893 265.825 193.187 266.993 191.871C268.005 190.732 269.931 189.551 271.186 188.681C271.882 188.199 272.368 187.542 273.156 187.184C274.755 186.458 273.718 186.829 272.254 186.775" stroke="#00ADB5" stroke-linecap="round" stroke-linejoin="round"/>
<path d="M269.715 172.164C271.766 172.705 274.295 173.076 276.164 174.194C277.371 174.915 278.421 175.64 276.224 174.326" stroke="#00ADB5" stroke-linecap="round" stroke-linejoin="round"/>
<path d="M271.844 168.736C274.77 169.501 276.838 170.358 279.224 171.913C280.784 172.93 280.533 172.649 278.908 171.67" stroke="#00ADB5" stroke-linecap="round" stroke-linejoin="round"/>
<path d="M275.395 165.287C277.907 166.7 280.345 168.306 282.943 169.536C284.471 170.26 283.669 170.209 282.489 169.64" stroke="#00ADB5" stroke-linecap="round" stroke-linejoin="round"/>
<path d="M277.414 162.523C280.056 163.726 282.491 164.924 284.924 166.438C286.033 167.128 285.027 167.172 284.185 166.614" stroke="#00ADB5" stroke-linecap="round" stroke-linejoin="round"/>
<path d="M271.009 170.96C273.005 168.587 275.008 166.338 276.825 163.906C277.341 163.214 280.486 159.367 279.127 161.336" stroke="#00ADB5" stroke-linecap="round" stroke-linejoin="round"/>
<path d="M273.108 175.128C275.705 172.832 279.448 169.771 280.286 166.341C280.533 165.331 281.068 164.322 281.852 163.628C282.647 162.924 283.479 162.605 282.291 163.792" stroke="#00ADB5" stroke-linecap="round" stroke-linejoin="round"/>
<path d="M271.024 175.048C273.793 172.065 276.16 170.06 277.725 166.386C278.131 165.432 278.597 164.641 279.264 163.89C279.971 163.094 280.986 162.349 279.621 163.773" stroke="#00ADB5" stroke-linecap="round" stroke-linejoin="round"/>
<path d="M281.312 176.518C282.588 177.326 283.866 178.075 285.192 178.748C285.739 179.026 285.062 178.488 284.829 178.401" stroke="#00ADB5" stroke-linecap="round" stroke-linejoin="round"/>
<path d="M283.797 172.525C283.883 172.599 288.896 176.894 288.007 175.936" stroke="#00ADB5" stroke-linecap="round" stroke-linejoin="round"/>
<path d="M286.777 170.965C287.883 172.029 291.27 175.141 290.078 174.175" stroke="#00ADB5" stroke-linecap="round" stroke-linejoin="round"/>
<path d="M279.832 178.214C281.664 176.507 285.684 173.126 286.668 170.503C287.057 169.469 288.834 168.141 287.162 169.562" stroke="#00ADB5" stroke-linecap="round" stroke-linejoin="round"/>
<path d="M280.062 178.723C280.236 178.862 283.742 182.637 284.489 180.807C284.871 179.872 285.368 178.655 286.304 178.14C287.946 177.236 288.249 174.391 289.93 173.627C291.836 172.761 291.658 171.309 289.882 170.794C289.185 170.591 289.735 169.216 289.011 169.324C288.347 169.423 287.996 169.179 287.254 169.314" stroke="#00ADB5" stroke-linecap="round" stroke-linejoin="round"/>
<path d="M269.481 171.654C270.684 173.952 270.911 174.785 272.851 175.743C273.374 176.001 274.058 175.643 274.455 175.844C275.241 176.244 276.795 176.252 277.382 175.527C278.562 174.071 278.997 173.13 280.805 172.244C281.945 171.685 282.863 170.366 283.39 169.273C283.971 168.071 285.015 167.166 285.628 165.959C285.888 165.446 283.783 164.123 283.764 163.234C283.759 162.982 281.26 162.975 280.844 162.764C280.34 162.508 280.109 162.147 279.867 161.615C279.514 160.837 278.888 161.803 277.939 161.876" stroke="#00ADB5" stroke-linecap="round" stroke-linejoin="round"/>
<path d="M227.852 200.797C230.691 201.876 233.167 203.268 235.724 204.808C237.944 206.145 240.452 206.858 242.657 208.154C244.227 209.076 245.857 211.183 247.016 212.566C247.402 213.027 247.69 213.459 247.964 213.978C248.592 215.17 247.939 212.288 247.872 211.973" stroke="#00ADB5" stroke-linecap="round" stroke-linejoin="round"/>
<path d="M255.273 179.133C256.061 179.96 259.249 184.524 258.62 181.093" stroke="#00ADB5" stroke-linecap="round" stroke-linejoin="round"/>
<path d="M261.836 495.964C262.174 497.702 263.033 498.831 263.699 500.413C264.152 501.489 265 502.323 265.472 503.38C265.982 504.521 266.745 505.861 267.456 506.877C268.065 507.747 268.465 508.572 269.234 509.341C270.593 510.7 271.621 512.32 272.986 513.659C274.971 515.607 278.332 518.147 281.223 517.987C282.152 517.935 283.181 518.223 284.092 518.085C284.873 517.967 285.822 517.928 286.605 518.063C287.892 518.285 289.289 518.062 290.52 518.328C291.184 518.471 291.907 518.261 292.58 518.386C293.452 518.548 294.474 518.588 295.363 518.588C298.273 518.588 301.174 518.571 304.076 518.202C305.648 518.002 307.206 518.524 308.763 518.247C310.223 517.987 312.169 518.255 313.543 517.654C315.232 516.916 316.912 515.754 318.216 514.449C318.87 513.795 319.367 513.014 319.81 512.205C320.391 511.143 320.715 509.997 321.3 508.937C323.339 505.241 324.501 501.127 326.152 497.275C326.542 496.367 327.181 495.631 327.647 494.793C327.765 494.58 327.819 494.309 328.011 494.106C328.731 493.344 327.352 493.263 326.718 492.975" stroke="#00ADB5" stroke-linecap="round" stroke-linejoin="round"/>
<path d="M261.512 496.124C262.956 494.234 264.181 492.847 266.279 491.778C268.036 490.884 269.858 489.821 271.446 488.654C273.885 486.86 277.242 486.061 280.212 485.521C283.445 484.933 286.627 484.246 289.917 484.246C290.935 484.246 291.943 484.553 292.961 484.569C294.18 484.589 295.401 484.628 296.615 484.731C298.477 484.889 300.388 484.852 302.253 484.892C304.855 484.949 307.345 486.296 309.947 486.504C311.494 486.628 313.299 486.859 314.804 487.281C315.367 487.438 316.01 487.546 316.536 487.801C317.191 488.119 317.65 488.657 318.251 489.031C320.192 490.239 322.362 490.807 324.459 491.725C325.102 492.006 326.207 492.488 326.919 492.488C327.899 492.488 327.848 494.296 327.848 492.488" stroke="#00ADB5" stroke-linecap="round" stroke-linejoin="round"/>
<path d="M327.688 493.621C326.489 495.227 325.635 495.839 323.935 496.777C322.6 497.513 321.122 498.034 319.626 498.307C318.23 498.563 316.705 498.764 315.289 498.878C314.112 498.972 312.91 498.835 311.707 498.972C308.987 499.282 306.242 499.983 303.618 500.749C299.873 501.844 296.256 501.958 292.387 502.168C288.164 502.397 283.93 502.074 279.792 501.216C278.396 500.927 276.921 501.187 275.5 501.131C273.936 501.07 272.403 500.639 270.931 500.13C270.311 499.916 269.74 499.587 269.09 499.439C268.329 499.265 267.556 499.334 266.801 499.151C265.748 498.897 264.52 498.438 263.632 497.823C263.245 497.555 262.665 497.334 262.361 496.929C262.273 496.811 262.159 496.549 262.159 496.409C262.159 496.074 261.885 496.159 262.321 496.449" stroke="#00ADB5" stroke-linecap="round" stroke-linejoin="round"/>
<path d="M292.942 510.025C293.926 509.915 295.225 509.934 294.818 508.669C294.688 508.263 294.359 508.22 294.01 508.103C292.971 507.757 291.111 508.428 290.72 509.513C290.019 511.46 291.346 513.563 293.431 512.889C293.999 512.705 295.005 512.304 295.366 511.789C295.799 511.17 295.149 511.353 294.72 510.752" stroke="#00ADB5" stroke-linecap="round" stroke-linejoin="round"/>
<path d="M289.951 507.924C291.519 507.295 292.321 507.035 293.906 507.035C294.545 507.035 294.864 506.99 295.428 507.358C296.358 507.967 296.678 509.123 296.581 510.141C296.499 511.001 296.215 512.18 295.912 512.996C295.687 513.603 295.131 513.708 294.561 513.822C294.041 513.926 292.906 513.635 292.496 513.863C292.062 514.104 290.732 514.185 290.396 513.737C290.086 513.324 289.754 513.146 289.529 512.646C289.314 512.168 289.217 511.712 289.044 511.237C288.807 510.584 288.38 508.801 289.264 508.409C289.782 508.178 290.004 508.04 290.598 508.04C290.766 508.04 290.91 508.166 291.082 508.166C291.331 508.166 290.603 508.005 290.355 508.005" stroke="#00ADB5" stroke-linecap="round" stroke-linejoin="round"/>
<path d="M292.781 501.459C293.921 499.985 294.961 498.465 296.139 497.033C296.772 496.263 297.558 495.601 298.24 494.864C300.192 492.756 302.182 490.448 303.671 487.983C305.138 485.555 307.14 482.912 309.314 481.088C310.462 480.125 311.488 479.061 312.487 477.95C313.457 476.873 313.903 475.367 314.822 474.229C315.533 473.348 320.188 467.351 320.998 470.997C321.317 472.43 319.919 473.432 319.041 474.31C318.045 475.306 317.044 476.572 316.195 477.704C315.377 478.795 314.382 479.754 313.587 480.855C312.506 482.352 310.538 483.423 309.749 485.119C309.098 486.518 308.019 487.643 307.208 488.939C306.085 490.736 304.77 492.237 303.447 493.881C302.399 495.185 300.756 496.256 300.013 497.742C299.392 498.983 298.292 499.506 297.288 500.309C296.851 500.659 296.32 500.853 295.932 501.337C295.804 501.498 295.573 501.685 295.452 501.504C295.383 501.4 295.12 501.632 295.169 501.746C295.342 502.148 294.923 500.779 294.882 500.651" stroke="#00ADB5" stroke-linecap="round" stroke-linejoin="round"/>
<path d="M292.137 501.864C292.446 502.021 294.399 503.503 294.399 502.308C294.399 501.947 294.864 501.344 295.028 500.975C295.151 500.697 294.036 500.964 293.869 501.177C293.652 501.456 293.232 501.683 293.914 501.702C294.439 501.717 294.849 501.492 295.248 501.182C295.362 501.092 296.904 501.336 295.53 501.298C294.8 501.278 294.09 501.298 293.389 501.298C292.783 501.298 294.011 501.137 294.188 501.137C294.329 501.137 293.164 501.83 292.963 501.604C292.914 501.548 292.829 501.397 293.026 501.298" stroke="#00ADB5" stroke-linecap="round" stroke-linejoin="round"/>
<path d="M266.441 495.883C266.532 495.931 269.42 497.443 269.431 497.257C269.444 497.031 269.283 496.834 269.395 496.61C269.884 495.633 270.516 496.102 271.357 496.48C272.013 496.775 271.017 493.507 272.995 494.887C274.017 495.6 274.29 495.486 274.122 494.29C273.995 493.384 274.308 493.381 275.087 493.477C275.617 493.542 275.996 493.658 276.299 493.154C276.666 492.542 277.079 492.194 277.83 492.458C278.452 492.677 279.004 493.292 279.432 492.507C279.621 492.162 279.462 491.129 280.056 491.327C280.429 491.451 280.92 491.938 281.344 491.785C281.666 491.669 281.914 490.671 282.278 490.829C282.658 490.993 283.046 491.715 283.526 491.542C283.758 491.459 284.187 490.702 283.733 490.793" stroke="#00ADB5" stroke-linecap="round" stroke-linejoin="round"/>
<path d="M277.832 494.428C278.834 495.243 282.584 499.595 283.686 496.345C283.883 495.762 283.914 494.609 284.467 495.564C284.922 496.35 285.607 496.896 286.352 496.152C286.845 495.658 287.065 494.821 287.77 494.563C288.418 494.325 288.893 495.543 289.431 494.832C289.865 494.259 289.655 493.273 289.018 492.929C288.809 492.816 288.751 493.205 288.659 493.297" stroke="#00ADB5" stroke-linecap="round" stroke-linejoin="round"/>
<path d="M286.48 489.419C288.041 489.151 290.007 488.605 291.194 490.002C291.744 490.65 291.692 491.477 291.328 492.211C291.063 492.747 290.348 493.015 289.892 492.489C289.518 492.058 290.289 491.347 290.565 491.084C291.511 490.182 292.913 491.626 293.209 492.606C293.457 493.424 291.22 495.32 291.49 494.509" stroke="#00ADB5" stroke-linecap="round" stroke-linejoin="round"/>
<path d="M312.74 492.166C313.204 492.006 316.185 491.046 315.613 492.633C315.319 493.446 314.195 493.883 313.458 494.15C313.109 494.276 312.209 494.254 312.794 493.746C313.3 493.306 314.014 493.099 314.679 493.153C317.272 493.364 313.646 496.343 312.901 496.753C311.455 497.551 309.487 498.391 307.973 497.418" stroke="#00ADB5" stroke-linecap="round" stroke-linejoin="round"/>
<path d="M296.824 487.4C297.439 488.401 298.179 489.406 298.705 490.457C298.886 490.819 298.103 489.893 297.919 489.533C297.871 489.437 297.534 488.376 297.502 488.383C297.108 488.471 297.016 490.273 296.909 490.605C296.406 492.179 295.162 491.576 293.942 491.458C292.465 491.316 291.805 492.773 290.988 493.703C290.335 494.447 290.079 494.675 290.522 495.561C290.88 496.278 291.029 496.973 290.522 497.622C290.126 498.128 289.63 498.447 289.153 498.865C288.715 499.248 289.342 499.185 289.26 498.955C289.036 498.327 287.653 498.458 287.2 498.488C285.518 498.599 283.805 498.177 282.154 498.281C281.277 498.337 280.452 498.826 279.582 498.955C278.699 499.086 279.866 499.852 280.197 500.072C280.766 500.452 279.083 499.265 278.465 498.973C277.427 498.482 276.47 498.102 275.933 497.016C275.395 495.927 274.921 495.184 274.012 494.385C273.698 494.109 273.661 493.69 273.814 493.317C274.169 492.451 274.956 491.747 275.735 491.279" stroke="#00ADB5" stroke-linecap="round" stroke-linejoin="round"/>
<path d="M296.661 490.631C294.635 489.218 292.964 488.609 290.583 488.288C289.746 488.175 288.853 487.596 288.307 486.955C287.822 486.386 288.097 486.537 287.526 487.309C286.745 488.365 286.166 487.417 285.169 487.695C283.641 488.122 282.33 489.542 280.779 489.805C280.354 489.877 280.457 489.167 279.926 489.473C279.032 489.989 278.349 490.476 277.305 490.64C276.673 490.739 275.476 491.155 275.572 491.924" stroke="#00ADB5" stroke-linecap="round" stroke-linejoin="round"/>
<path d="M310.398 490.631C312.353 490.819 314.333 490.795 316.279 491.003C316.964 491.077 317.314 491.354 317.796 491.802C318.231 492.207 318.909 493.16 319.533 493.212C320.433 493.287 320.898 492.913 321.737 492.651C322.243 492.493 323.856 492.651 323.326 492.651" stroke="#00ADB5" stroke-linecap="round" stroke-linejoin="round"/>
<path d="M308.941 492.812C306.84 494.197 305.718 496.297 303.469 497.557C303.024 497.807 301.661 498.29 301.763 499.11C301.838 499.704 306.389 497.845 307.083 497.499" stroke="#00ADB5" stroke-linecap="round" stroke-linejoin="round"/>
<path d="M316.781 494.754C317.924 495.604 318.909 496.82 320.336 496.388C320.723 496.271 321.531 496.225 321.791 495.966" stroke="#00ADB5" stroke-linecap="round" stroke-linejoin="round"/>
<path d="M599.149 459.529C593.248 460.661 588.958 462.365 585.219 467.173C582.849 470.22 583.368 475.017 584.921 478.247C587.48 483.57 593.77 486.576 599.446 486.836C606.057 487.14 615.248 485.198 616.603 477.313C617.33 473.086 613.292 469.089 611.401 465.623C609.863 462.803 607.546 459.002 604.309 457.809C602.987 457.322 599.919 457.491 598.957 458.807C598.528 459.395 597.975 460.015 597.662 460.675C597.409 461.21 597.681 459.314 597.62 458.764" stroke="#00ADB5" stroke-linecap="round" stroke-linejoin="round"/>
<path d="M601.634 474.055C600.042 474.873 597.458 475.415 598.852 477.208C599.17 477.617 599.623 477.594 600.009 477.208C600.339 476.878 602.004 475.144 600.774 474.734C598.266 473.898 599.183 478.902 600.976 476.688C601.938 475.499 600.591 474.328 599.383 475.053C597.944 475.916 599.082 477.424 600.211 476.114C601.062 475.128 600.382 474.372 599.457 475.297C598.629 476.126 599.47 477.448 600.285 476.327C601.121 475.177 600.168 474.204 599.16 475.212C597.993 476.379 599.256 476.256 600.084 475.488C600.918 474.713 599.438 474.828 598.958 475.435C597.843 476.845 599.59 476.645 599.871 475.435C600.285 473.658 598.451 477.741 599.34 474.628" stroke="#00ADB5" stroke-linecap="round" stroke-linejoin="round"/>
<path d="M595.133 468.129C596.83 470.369 598.57 472.493 599.996 474.733C600.391 475.354 600.075 475.977 600.293 475.964C601.097 475.92 601.921 475.773 602.777 475.773C604.738 475.773 606.282 474.818 608.171 474.818C610.459 474.818 613.82 474.224 610.04 472.333" stroke="#00ADB5" stroke-linecap="round" stroke-linejoin="round"/>
<path d="M593.224 459.339C592.867 457.532 591.123 453.152 594.371 453.616C595.536 453.783 596.318 454.988 597.004 455.75C598.788 457.732 598.597 460.125 595.709 460.295C594.952 460.339 593.887 461.839 593.033 460.772C592.066 459.564 593.053 459.645 593.224 458.192C593.336 457.242 592.716 457.321 592.449 456.387C592.244 455.671 592.669 454.888 592.842 454.37" stroke="#00ADB5" stroke-linecap="round" stroke-linejoin="round"/>
<path d="M594.371 457.237C594.354 457.693 593.65 461.807 595.146 461.134C595.647 460.908 596.08 460.58 596.282 460.061C596.479 459.558 596.27 459.258 596.049 458.766C595.479 457.499 593.825 455.531 594.329 458.384C594.647 460.184 596.657 459.763 596.813 458.044C596.933 456.731 595.277 454.972 594.223 456.473C593.477 457.534 594.805 459.874 595.582 458.235C595.976 457.403 595.033 455.287 594.032 456.324C593.005 457.388 594.548 459.631 595.56 458.723C596.562 457.826 595.881 455.088 594.796 456.133C593.803 457.089 595.293 458.991 596.049 457.534C596.892 455.91 595.034 454.686 594.456 456.388C593.94 457.907 595.549 459.541 595.921 457.471C596.205 455.895 593.31 455.057 593.31 456.94C593.31 458.674 594.86 458.497 594.86 456.918C594.86 455.273 593.203 455.644 593.894 457.025C594.584 458.406 595.51 455.955 594.732 455.177C593.825 454.27 592.623 455.673 593.692 456.547C594.42 457.143 595.416 454.67 594.191 454.211C593.133 453.814 593.718 455.974 594.085 455.485C594.653 454.728 593.782 454.22 594.382 454.37C594.911 454.503 596.196 454.785 596.558 455.252C596.844 455.619 598.002 457.662 598.002 458.193C598.002 459.816 595.52 460.691 594.095 460.284C593.073 459.992 592.771 460.714 593.129 460.475C593.999 459.896 594.18 458.383 594.18 458.957" stroke="#00ADB5" stroke-linecap="round" stroke-linejoin="round"/>
<path d="M594.178 486.668C593.194 488.756 592.321 490.853 591.163 492.826C590.902 493.27 590.413 494.177 590.356 494.695C590.201 496.089 591.601 491.369 591.885 490.681" stroke="#00ADB5" stroke-linecap="round" stroke-linejoin="round"/>
<path d="M613.484 482.654C615.905 485.711 618.573 487.89 620.46 491.244C620.646 491.574 620.968 491.836 621.224 492.093C622.083 492.952 619.631 490.261 618.836 489.343" stroke="#00ADB5" stroke-linecap="round" stroke-linejoin="round"/>
<path d="M453.172 304.462C454.685 310.173 460.529 331.407 461.927 339.164C465.776 360.526 459.737 331.378 459.722 340.813" stroke="#00ADB5" stroke-width="2" stroke-linecap="round" stroke-linejoin="round"/>
<path d="M442.916 313.698C442.4 305.006 440.45 292.942 452.638 294.184C458.371 294.769 464.687 298.172 468.262 302.725C473.786 309.761 470.871 320.668 464.903 326.268C461.726 329.248 458.645 330.741 454.487 331.868C447.445 333.777 453.003 323.995 454.137 321.314" stroke="#00ADB5" stroke-width="2" stroke-linecap="round" stroke-linejoin="round"/>
<path d="M474.614 324.32C486.723 323.673 497.87 321.289 502.202 334.422C504.72 342.054 507.785 351.327 505.687 359.37C503.79 366.638 499.706 371.181 492.238 368.085C481.566 363.661 481.58 355.332 487.389 347.026C489.528 343.968 497.718 337.844 497.724 334.268" stroke="#00ADB5" stroke-width="2" stroke-linecap="round" stroke-linejoin="round"/>
<path d="M496.444 310.147C496.031 313.333 496.025 335.872 489.924 336.089C488.781 336.129 487.82 336.724 486.821 337.222C482.98 339.135 485.316 337.414 486.75 335.423C489.998 330.915 496.576 332.58 499.869 326.597C503.445 320.1 505.093 316.904 499.966 311.877C496.372 308.355 497.951 302.363 495.122 310.805" stroke="#00ADB5" stroke-width="2" stroke-linecap="round" stroke-linejoin="round"/>
<path d="M514.314 289.693C518.994 300.23 523.272 313.951 530.78 323.123C532.764 325.547 533.877 323.437 533.847 321.55C533.809 319.164 533.136 316.758 532.445 314.5" stroke="#00ADB5" stroke-width="2" stroke-linecap="round" stroke-linejoin="round"/>
<path d="M500.728 317.091C508.153 314.169 526.387 311.212 529.494 301.939" stroke="#00ADB5" stroke-width="2" stroke-linecap="round" stroke-linejoin="round"/>
<path d="M523.562 290.039C555.748 346.337 524.391 306.768 540.75 296.472C550.68 290.222 551.509 319.678 554.26 306.936" stroke="#00ADB5" stroke-width="2" stroke-linecap="round" stroke-linejoin="round"/>
<path d="M552.309 288.099C553.477 291.591 557.399 314.639 565.564 309.374C569.215 307.02 573.468 302.531 574.171 298.118C574.927 293.383 571.969 281.355 565.276 282.65C562.221 283.241 557.113 283.384 555.12 286.286C553.194 289.092 551.978 295.663 554.291 288.763" stroke="#00ADB5" stroke-width="2" stroke-linecap="round" stroke-linejoin="round"/>
<path d="M575.115 282.52C584.242 276.66 594.97 274.736 596.359 288.537C596.534 290.269 596.566 292.45 597.36 294.044C598.281 295.894 596.389 289.525 594.597 288.497" stroke="#00ADB5" stroke-width="2" stroke-linecap="round" stroke-linejoin="round"/>
<path d="M574.446 287.807C574.859 295.021 573.828 304.794 577.198 311.561C577.314 311.792 578.115 313.558 577.711 312.59C576.912 310.676 576.581 309.376 575.076 307.3" stroke="#00ADB5" stroke-width="2" stroke-linecap="round" stroke-linejoin="round"/>
<path d="M343.438 353.109C342.173 364.835 344.378 400.935 324.462 398.689C320.31 398.221 316.539 397.527 314.566 393.615C312.501 389.519 310.793 385.955 310.587 381.302C310.334 375.587 312.609 372.889 317.231 370.311C318.851 369.406 315.369 373.069 315.06 373.423C313.03 375.756 319.92 372.912 322.554 372.328" stroke="#00ADB5" stroke-width="2" stroke-linecap="round" stroke-linejoin="round"/>
<path d="M369.004 358.742C358.93 359.684 344.712 361.595 343.087 374.196C342.206 381.031 352.368 381.862 356.779 384.19C364.358 388.19 370.109 401.235 361.608 406.976C355.696 410.968 351.225 408.847 345.474 409.245C339.633 409.65 343.7 407.497 347.163 406.907" stroke="#00ADB5" stroke-width="2" stroke-linecap="round" stroke-linejoin="round"/>
<path d="M423.582 48.4941C422.775 56.5839 422.283 64.7566 421.285 72.8272C421.189 73.6037 420.425 76.669 421.329 74.1907C421.99 72.3787 421.776 70.4903 422.838 68.772C424.3 66.4053 430.906 57.3898 434.009 58.3018C440.227 60.1295 433.951 71.664 432.17 74.9692C431.556 76.1091 429.883 78.5818 430.75 79.8602C431.904 81.5644 434.041 75.2663 434.132 75.0736" stroke="#00ADB5" stroke-width="2" stroke-linecap="round" stroke-linejoin="round"/>
<path d="M448.14 53.8072C447.403 57.4216 441.213 75.2615 447.178 78.2165C448.861 79.0504 452.585 77.4763 453.742 76.1193C454.947 74.7062 454.317 72.5424 454.186 70.9023" stroke="#00ADB5" stroke-width="2" stroke-linecap="round" stroke-linejoin="round"/>
<path d="M435.871 54.1973C442.415 56.1434 449.146 57.4391 455.648 59.4469C457.183 59.9209 457.758 60.1356 458.585 61.5048C459.87 63.6346 456.456 61.6891 455.866 61.044" stroke="#00ADB5" stroke-width="2" stroke-linecap="round" stroke-linejoin="round"/>
<path d="M465.466 66.8447C463.964 71.3795 462.552 75.9712 460.837 80.4336C460.496 81.3209 460.445 81.6453 460.261 80.9676C460.084 80.3149 459.912 79.9302 460.202 79.2408C461.743 75.5769 465.338 70.3112 468.729 68.2647C472.391 66.0548 470.393 73.4779 469.901 74.9805C469.349 76.6682 467.861 81.2936 469.553 76.8179C470.559 74.1543 472.871 67.5344 476.768 68.4979C479.127 69.0814 478.582 72.2719 478.165 73.959C477.396 77.0701 476.632 80.1603 475.86 83.2817C474.732 87.843 475.341 85.3798 476.165 82.0466" stroke="#00ADB5" stroke-width="2" stroke-linecap="round" stroke-linejoin="round"/>
<path d="M494.555 56.9117C492.205 65.3674 489.32 73.7989 487.295 82.3425C487.057 83.3444 486.539 87.0545 488.134 87.4964C489.65 87.9162 495.637 84.3186 494.175 83.0713" stroke="#00ADB5" stroke-width="2" stroke-linecap="round" stroke-linejoin="round"/>
<path d="M87.5658 401.822C82.0065 412.383 76.4649 422.954 70.8904 433.508C69.3017 436.515 66.1657 445.718 65.7774 442.339C65.251 437.756 68.0508 431.341 69.2389 427.047C70.9156 420.987 74.3297 408.879 82.837 408.924C89.2588 408.957 96.4782 418.375 97.4741 424.25C98.1772 428.398 100.222 423.714 102.997 422.462" stroke="#00ADB5" stroke-width="2" stroke-linecap="round" stroke-linejoin="round"/>
<path d="M104.798 435.657C108.534 444.345 114.041 459.034 125.382 450.953C130.592 447.24 128.003 440.885 122.859 438.867C110.252 433.922 94.3669 447.733 91.2229 459.085C88.0796 470.435 100.488 473.915 109.024 475.036C113.747 475.657 112.688 471.619 116.752 470.213" stroke="#00ADB5" stroke-width="2" stroke-linecap="round" stroke-linejoin="round"/>
<path d="M136.198 465.699C126.405 461.609 113.431 457.964 107.912 470.479C105.252 476.511 117.157 477.219 120.688 477.052C127.432 476.735 142.449 461.123 137.39 465.594C132.95 469.517 128.456 474.147 126.631 479.94C125.452 483.682 126.806 491.95 131.144 486.24" stroke="#00ADB5" stroke-width="2" stroke-linecap="round" stroke-linejoin="round"/>
<path d="M174.277 473.529C160.063 474.893 143.217 475.607 138.174 491.577C135.695 499.427 141.511 504.886 148.519 507.19C153.417 508.8 158.409 505.305 161.38 501.758" stroke="#00ADB5" stroke-width="2" stroke-linecap="round" stroke-linejoin="round"/>
<path d="M187.188 475.694C186.409 476.642 151.396 514.803 168.085 515.098C172.706 515.18 177.449 512.491 180.632 509.468" stroke="#00ADB5" stroke-width="2" stroke-linecap="round" stroke-linejoin="round"/>
<path d="M157.531 482.639C164.254 487.275 170.882 492.184 178.256 495.767C180.171 496.698 183.362 497.142 184.681 499.072C185.421 500.156 184.257 497.58 184.127 497.206" stroke="#00ADB5" stroke-width="2" stroke-linecap="round" stroke-linejoin="round"/>
<path d="M82.5471 177.101C88.1886 186.749 106.104 214.897 98.8311 206.411C94.1821 200.986 90.6508 193.788 87.7031 187.371C84.6099 180.638 81.7055 168.623 93.4928 169.232C103.61 169.756 107.648 180.087 109.428 188.555C110.213 192.291 110.413 195.193 112.089 198.591C113.803 202.066 113.898 188.68 114.549 185.206" stroke="#00ADB5" stroke-width="2" stroke-linecap="round" stroke-linejoin="round"/>
<path d="M118.995 157.479C119.31 158.938 124.187 192.302 131.265 185.885C134.245 183.183 134.9 176.524 135.283 172.876C136.478 161.473 131.662 160.064 123.656 157.651C119.837 156.5 119.055 156.552 118.006 160.483C115.853 168.556 119.247 166.288 123.597 161.799" stroke="#00ADB5" stroke-width="2" stroke-linecap="round" stroke-linejoin="round"/>
<path d="M149.776 148.07C145.843 154.697 140.829 162.493 143.595 170.611C144.743 173.978 147.412 173.089 149.282 171.193C152.232 168.202 153.77 163.285 153.606 159.177C153.292 151.301 148.358 144.562 143.182 138.966C142.464 138.19 135.927 132.801 137.207 137.428C139.507 145.74 145.906 153.734 150.366 160.957C157.716 172.863 159.97 168.24 163.272 157.064" stroke="#00ADB5" stroke-width="2" stroke-linecap="round" stroke-linejoin="round"/>
<path d="M163.973 150.129C166.413 152.405 185.672 166.162 186.27 153.959C186.324 152.852 184.913 152.507 184.448 151.563C183.249 149.132 181.263 147.529 180.182 146.254" stroke="#00ADB5" stroke-width="2" stroke-linecap="round" stroke-linejoin="round"/>
<path d="M165.579 158.395C157.953 148.382 147.3 137.97 158.22 128.071C162.821 123.899 172.367 127.198 172.118 134.167C172.001 137.413 171.317 145.44 166.655 146.288C164.19 146.736 163.054 145.121 165.334 142.866" stroke="#00ADB5" stroke-width="2" stroke-linecap="round" stroke-linejoin="round"/>
<path d="M182.984 116.865C187.914 120.002 223.046 140.764 204.644 149.838C201.776 151.253 199.253 147.957 197.728 145.836C194.292 141.055 204.304 134.273 204.721 129.209" stroke="#00ADB5" stroke-width="2" stroke-linecap="round" stroke-linejoin="round"/>
<path d="M211.816 100.173C208.947 102.516 192.487 117.072 205.43 119.887C212.58 121.441 219.337 114.317 224.771 110.761C233.524 105.033 235.372 116.056 232.967 122.278C231.494 126.088 219.197 138.557 222.562 128.644" stroke="#00ADB5" stroke-width="2" stroke-linecap="round" stroke-linejoin="round"/>
<path d="M308.969 641.957C298.018 647.468 283.669 657.516 295.508 670.85C301.186 677.246 311.669 674.625 319.147 673.887C321.248 673.679 327.045 675.7 325.467 674.297C322.053 671.263 319.597 671.458 318.572 666.335" stroke="#00ADB5" stroke-width="2" stroke-linecap="round" stroke-linejoin="round"/>
<path d="M341.47 638.262C341.47 646.334 341.395 652.112 349.678 655.252C353.255 656.609 355.501 657.853 356.45 661.86C357.523 666.391 354.362 672.952 350.622 675.485C345.998 678.618 340.189 679.711 334.986 677.579C330.53 675.752 335.455 673.594 337.776 671.505" stroke="#00ADB5" stroke-width="2" stroke-linecap="round" stroke-linejoin="round"/>
<path d="M377.671 629.398C376.219 635.028 369.669 650.083 375.496 655.911C377.848 658.263 382.404 656.957 385.305 657.634C388.192 658.309 390.667 660.518 392.446 662.805C395.262 666.426 392.581 671.914 389.327 674.461C384.278 678.412 377.065 676.677 371.187 676.677C367.978 676.677 370.17 676.45 371.762 674.461" stroke="#00ADB5" stroke-width="2" stroke-linecap="round" stroke-linejoin="round"/>
<path d="M364.934 559.34C370.624 557.168 381.181 553.713 386.685 549.819C392.496 545.708 386.412 544.527 383.32 545.51C378.081 547.174 374.917 552.66 373.142 557.493C368.467 570.218 383.337 584.602 395.837 583.144C407.389 581.796 409 576.14 410.735 567.466" stroke="#00ADB5" stroke-width="2" stroke-linecap="round" stroke-linejoin="round"/>
<path d="M418.124 552.693C416.829 554.801 404.535 580.114 401.133 568.207" stroke="#00ADB5" stroke-width="2" stroke-linecap="round" stroke-linejoin="round"/>
<path d="M395.223 553.432C400.409 560.365 412.941 585.157 425.511 584.458C427.333 584.357 424.916 577.339 424.772 576.332" stroke="#00ADB5" stroke-width="2" stroke-linecap="round" stroke-linejoin="round"/>
<path d="M429.204 553.429C432.069 570.216 437.809 620.95 434.539 604.237C432.853 595.62 417.457 548.99 431.009 550.926C436.887 551.765 451.891 560.341 447.959 568.204C445.749 572.625 432.048 574.169 438.068 571.159" stroke="#00ADB5" stroke-width="2" stroke-linecap="round" stroke-linejoin="round"/>
<path d="M457.276 565.249C459.101 574.747 460.858 584.237 462.448 593.773C462.72 595.405 462.354 594.06 461.873 593.157C458.851 587.491 454.714 577.393 454.855 571.036C454.989 565.014 463.275 560.906 467.619 565.249" stroke="#00ADB5" stroke-width="2" stroke-linecap="round" stroke-linejoin="round"/>
<path d="M480.915 576.33C480.723 583.282 485.767 607.62 497.742 600.544C499.458 599.53 503.691 597.052 503.816 594.798C503.883 593.596 501.696 593.321 500.861 593.321C498.666 593.321 498.117 590.598 497.167 588.888" stroke="#00ADB5" stroke-width="2" stroke-linecap="round" stroke-linejoin="round"/>
<path d="M477.223 578.548C483.693 571.854 490.971 562.632 496.717 574.567C498.399 578.061 497.813 582.271 496.43 585.771C494.194 591.425 486.189 593.655 488.304 585.196" stroke="#00ADB5" stroke-width="2" stroke-linecap="round" stroke-linejoin="round"/>
<path d="M517.11 565.25C522.174 573.34 542.65 595.15 529.217 605.1C524.92 608.284 522.114 608.269 517.274 608.096C510.442 607.852 514.052 606.12 516.371 600.709" stroke="#00ADB5" stroke-width="2" stroke-linecap="round" stroke-linejoin="round"/>
<path d="M548.136 562.295C546.607 564.145 526.853 583.242 538.861 585.278C543.287 586.028 547.354 583.347 551.419 586.057C558.753 590.947 557.016 597.575 550.27 601.735C546.899 603.814 543.136 604.904 539.599 606.619C537.6 607.588 539.731 604.78 540.01 603.664" stroke="#00ADB5" stroke-width="2" stroke-linecap="round" stroke-linejoin="round"/>
<path d="M531.147 554.17C529.433 555.43 510.963 565.679 513.582 571.899C516.886 579.747 517.978 570.087 518.589 566.728" stroke="#00ADB5" stroke-width="2" stroke-linecap="round" stroke-linejoin="round"/>
<path d="M77.1094 312.516C80.3995 304.758 79.052 297.998 79.052 289.958C79.052 288.394 78.7682 283.63 80.4118 282.777C83.0039 281.433 85.4261 280.535 88.4844 280.535C90.5176 280.535 92.5605 280.594 94.5928 280.535C96.6254 280.477 98.5944 279.65 100.604 279.404C104.343 278.946 108.233 279.584 111.925 279.584C114.857 279.584 117.89 279.964 120.71 279.964C121.211 279.964 123.252 280.203 123.581 280.493C124.587 281.381 124.299 282.805 125.092 283.581" stroke="#00ADB5" stroke-linecap="round" stroke-linejoin="round"/>
<path d="M124.898 284.268C125.026 286.557 125.074 289.77 126.016 292.007C126.626 293.456 126.139 295.386 126.263 296.93C126.5 299.893 126.059 302.782 126.059 305.658C126.059 309.515 126.252 313.323 126.252 317.159C126.252 320.451 123.035 319.9 120.491 319.437C118.293 319.038 115.343 319.839 113.053 319.867C108.633 319.922 104.193 320.254 99.7673 320.254C96.0707 320.254 93.3256 319.181 89.9215 317.89C88.1037 317.2 87.0049 317.352 85.0523 317.352C83.203 317.352 81.6823 317.063 79.8284 317.642C78.7438 317.981 76.8015 317.689 76.1846 316.578C75.4449 315.247 76.9155 314.669 76.9155 313.579C76.9155 312.664 76.8005 310.047 77.109 312.515" stroke="#00ADB5" stroke-linecap="round" stroke-linejoin="round"/>
<path d="M99.1647 289.297C99.1647 289.297 99.9386 289.684 100.713 290.458C101.486 291.038 103.116 290.748 104.485 290.748C105.206 290.748 105.967 290.186 106.614 289.899C107.923 289.317 107.142 290.412 106.829 291.038C106.482 291.732 106.878 293.022 107.506 293.457C108.542 294.174 109.567 293.555 110.58 293.048C111 292.838 110.885 292.741 111.015 293.027C111.192 293.415 111.16 293.979 111.16 294.403C111.16 295.367 111.097 296.97 110.58 297.81C109.9 298.915 109.212 299.631 108.118 300.444C107.038 301.246 105.61 302.647 104.174 302.647C101.367 302.647 98.3873 302.035 96.9827 299.304C96.3873 298.147 95.2952 297.199 95.2952 295.875C95.2952 294.771 94.9298 293.448 95.2952 292.393C95.738 291.113 96.843 289.899 96.456 289.899C96.6533 289.955 98.3908 288.91 99.1647 289.297Z" stroke="#00ADB5" stroke-linecap="round" stroke-linejoin="round"/>
<path d="M102.358 288.62C103.446 288.218 105.932 287.374 106.517 286.057C106.97 285.039 105.475 284.848 104.679 284.848C103.715 284.848 102.571 286.181 102.315 287.024C102.172 287.493 102.036 287.973 101.895 288.448C101.828 288.678 101.918 288.844 101.965 289.056C102.001 289.217 103.477 288.442 103.422 288.22" stroke="#00ADB5" stroke-linecap="round" stroke-linejoin="round"/>
<path d="M124.377 310.33L76.7862 311.375C73.5246 311.447 70.918 314.111 70.918 317.374V321.995C70.918 325.309 73.6043 327.995 76.918 327.995H124.509C127.823 327.995 130.509 325.309 130.509 321.995V316.329C130.509 312.963 127.742 310.256 124.377 310.33Z" stroke="#00ADB5"/>
<path d="M88.4531 311.088C89.0957 312.085 89.6504 313.28 90.3877 314.202C90.7586 314.666 90.6991 314.571 91.418 314.305C92.6181 313.861 93.9779 314.179 95.23 314.179C96.3293 314.179 97.6073 313.605 98.6757 313.893C99.9134 314.226 101.373 313.59 102.591 313.561C104.059 313.526 105.458 313.664 106.918 313.664C107.798 313.664 108.656 313.149 109.471 313.149C109.943 313.149 111.291 313.524 111.325 312.657C111.342 312.234 111.531 311.824 111.531 311.397C111.531 310.82 111.186 311.07 110.604 310.779" stroke="#00ADB5" stroke-linecap="round" stroke-linejoin="round"/>
<path d="M298.048 99.6036C298.842 98.5935 300.364 96.7246 298.231 96.3941C297.749 96.3193 297.298 96.0358 296.825 96.2504C295.367 96.9112 294.012 98.3663 294.012 100.096C294.012 102.859 297.042 103.458 299.244 103.422C302.958 103.362 304.088 99.7429 305.4 96.8115C306.725 93.8504 308.197 90.9374 309.572 87.9975C311.127 84.671 313.679 82.021 315.293 78.725C315.985 77.3116 316.889 76.0669 317.78 74.7764C319.162 72.7746 320.148 70.7551 321.136 68.5354C321.948 66.7144 322.847 65.0514 323.841 63.3278C324.243 62.6307 324.092 61.5629 324.86 62.3081C325.443 62.8739 326.371 63.2456 327.157 63.3893C330.589 64.0179 333.746 64.6832 337.281 64.4021C340.856 64.1179 344.429 63.6056 347.949 62.924C349.145 62.6923 348.635 62.9713 348.071 63.6973C347.114 64.9288 346.297 66.2338 345.38 67.4816C344.185 69.1088 343.764 71.0685 343.056 72.9288C342.279 74.9737 341.353 76.927 340.61 79.0055C339.174 83.0225 337.08 86.6859 334.488 90.0573C332.986 92.0112 331.131 95.4237 328.318 95.2855C323.966 95.0717 326.905 86.5044 328.984 84.8291C330.104 83.9273 331.328 84.8981 331.464 86.1088C331.652 87.7722 331.082 90.0517 329.467 90.8648C327.763 91.7227 326.457 91.6197 327.768 89.4072C328.561 88.0685 329.033 89.5418 329.358 88.8871" stroke="#00ADB5" stroke-width="2" stroke-linecap="round" stroke-linejoin="round"/>
<path d="M626.048 398.049C626.842 397.039 628.364 395.17 626.231 394.839C625.749 394.765 625.298 394.481 624.825 394.696C623.367 395.357 622.012 396.812 622.012 398.542C622.012 401.305 625.042 401.903 627.244 401.867C630.958 401.807 632.088 398.188 633.4 395.257C634.725 392.296 636.197 389.383 637.572 386.443C639.127 383.116 641.679 380.466 643.293 377.17C643.985 375.757 644.889 374.512 645.78 373.222C647.162 371.22 648.148 369.2 649.136 366.981C649.948 365.16 650.847 363.497 651.841 361.773C652.243 361.076 652.092 360.008 652.86 360.753C653.443 361.319 654.371 361.691 655.157 361.835C658.589 362.463 661.746 363.129 665.281 362.847C668.856 362.563 672.429 362.051 675.949 361.369C677.145 361.138 676.635 361.417 676.071 362.143C675.114 363.374 674.297 364.679 673.38 365.927C672.185 367.554 671.764 369.514 671.056 371.374C670.279 373.419 669.353 375.372 668.61 377.451C667.174 381.468 665.08 385.131 662.488 388.503C660.986 390.456 659.131 393.869 656.318 393.731C651.966 393.517 654.905 384.95 656.984 383.274C658.104 382.373 659.328 383.343 659.464 384.554C659.652 386.217 659.082 388.497 657.467 389.31C655.763 390.168 654.457 390.065 655.768 387.853C656.561 386.514 657.033 387.987 657.358 387.332" stroke="#00ADB5" stroke-width="2" stroke-linecap="round" stroke-linejoin="round"/>
<path d="M590.977 223.967C587.336 217.367 587.551 215.482 588.381 208.838C588.838 205.18 589.013 201.606 589.939 198.007C591.594 191.571 592.131 182.905 586.949 177.723C576.753 167.526 557.764 182.027 563.514 194.963C565.702 199.887 569.483 203.532 572.215 208.176C573.31 210.038 573.924 212.057 575.348 213.798C576.713 215.467 578.409 217.544 578.409 219.616C578.409 221.367 577.887 223.636 579.125 225.184C580.835 227.322 580.227 226.222 582.76 226.222C584.5 226.222 587.067 224.839 588.471 223.716C589.473 222.914 590.01 225.233 590.01 223C590.01 221.083 589.393 222.678 590.655 222.678" stroke="#00ADB5" stroke-linecap="round" stroke-linejoin="round"/>
<path d="M582.922 230.09C586.369 229.063 595.908 226.768 593.7 229.607C591.036 233.032 589.897 231.316 586.628 232.042C584.957 232.413 583.327 237.572 585.178 237.681C587.822 237.837 589.575 234.28 592.268 234.28C594.718 234.28 594.543 237.505 593.073 238.648C591.133 240.158 588.901 238.535 587.595 240.886C585.531 244.601 591.169 243.997 592.769 243.124C594.381 242.245 595.915 240.872 597.102 240.08" stroke="#00ADB5" stroke-linecap="round" stroke-linejoin="round"/>
<path d="M590.977 222.918C590.933 223.199 590.887 225.093 590.131 225.093C589.723 225.093 589.536 224.846 589.164 225.053C588.726 225.296 588.316 225.868 587.897 226.203C587.528 226.498 586.434 226.462 586.223 226.83C585.88 227.431 585.182 227.76 584.531 227.832C583.687 227.926 583.375 228.35 582.477 228.15C582.202 228.089 582.175 227.913 581.918 227.913C581.52 227.913 581.349 228.103 581.049 227.77C580.717 227.401 580.175 227.228 580.015 226.669C579.798 225.908 579.001 225.507 580.181 225.979" stroke="#00ADB5" stroke-linecap="round" stroke-linejoin="round"/>
<path d="M575.429 191.014C576.871 191.021 578.062 191.114 578.553 192.643C578.888 193.683 578.893 194.705 578.893 195.785C578.893 196.835 578.249 197.679 578.249 198.667C578.249 199.974 579.294 199.76 580.178 200.158C581.013 200.534 581.618 200.848 582.071 201.688C582.52 202.521 582.181 204.131 582.12 205.036C582.068 205.815 581.698 207.471 582.237 208.129C582.53 208.487 584.129 209.039 583.083 208.254" stroke="#00ADB5" stroke-linecap="round" stroke-linejoin="round"/>
<path d="M563.262 205.6C562.107 206.366 560.931 207.009 559.641 207.493C559.1 207.696 558.387 208.058 558.508 207.211" stroke="#00ADB5" stroke-linecap="round" stroke-linejoin="round"/>
<path d="M559.074 194.48C557.029 194.973 554.997 195.528 552.969 196.074C552.632 196.165 553.406 195.312 553.435 195.286" stroke="#00ADB5" stroke-linecap="round" stroke-linejoin="round"/>
<path d="M558.512 183.926C556.393 183.618 554.281 183.236 552.174 182.86C551.204 182.688 550.793 182.815 551.342 181.992" stroke="#00ADB5" stroke-linecap="round" stroke-linejoin="round"/>
<path d="M569.953 172.726C568.28 172.432 566.829 172.149 565.316 171.393C564.608 171.039 563.927 170.613 563.186 170.327C562.305 169.988 562.287 170.091 563.266 169.504" stroke="#00ADB5" stroke-linecap="round" stroke-linejoin="round"/>
<path d="M584.535 165.477C584.779 167.186 584.698 168.211 584.007 169.76C583.634 170.595 583.318 171.651 583.134 172.553C583.07 172.863 583.035 173.04 582.825 173.273C582.746 173.361 583.035 172.323 583.085 172.163" stroke="#00ADB5" stroke-linecap="round" stroke-linejoin="round"/>
<path d="M596.859 172.324C596.325 174.105 595.562 175.813 595.105 177.597C594.873 178.499 595.018 178.554 595.409 177.641" stroke="#00ADB5" stroke-linecap="round" stroke-linejoin="round"/>
<path d="M602.016 185.133C600.185 186.717 598.684 188.684 597.262 190.629C597.084 190.873 596.878 190.96 596.68 191.157C596.231 191.606 597.007 190.592 597.101 190.45" stroke="#00ADB5" stroke-linecap="round" stroke-linejoin="round"/>
<path d="M191.801 346.736C194.479 358.802 197.496 370.896 199.267 383.144C200.257 389.987 198.084 380.113 197.814 378.717C197.229 375.695 196.558 373.019 196.558 369.929C196.558 363.71 196.392 357.422 195.931 351.196C195.608 346.838 190.255 333.862 197.021 344.688C203.92 355.727 208.791 367.931 213.474 379.972C214.119 381.632 215.013 383.204 215.72 384.796C216.107 385.666 208.865 378.588 206.073 377.065" stroke="#00ADB5" stroke-width="2" stroke-linecap="round" stroke-linejoin="round"/>
<path d="M187.637 373.498C195.368 370.413 212.416 364.594 217.371 355.922C219.447 352.289 219.043 353.969 213.208 355.063" stroke="#00ADB5" stroke-width="2" stroke-linecap="round" stroke-linejoin="round"/>
<path d="M210.828 333.059C216.795 344.87 221.116 357.446 222.755 370.557C222.907 371.772 223.189 373.105 224.043 373.96C224.202 374.119 221.182 368.465 220.343 366.956" stroke="#00ADB5" stroke-width="2" stroke-linecap="round" stroke-linejoin="round"/>
<path d="M210.828 332.463C215.455 335.234 232.448 345.47 221.367 351.988C220.395 352.561 219.255 353.089 218.559 354.004C217.087 355.941 216.909 356.51 217.964 353.872" stroke="#00ADB5" stroke-width="2" stroke-linecap="round" stroke-linejoin="round"/>
<path d="M226.293 326.518C228.264 339.87 231.645 354.54 231.645 368.146C231.645 371.149 231.143 365.587 230.456 363.983" stroke="#00ADB5" stroke-width="2" stroke-linecap="round" stroke-linejoin="round"/>
<path d="M239.969 350.302C243.233 360.035 244.912 365.77 235.343 368.606C232.073 369.574 236.024 364.825 236.863 364.245C239.726 362.263 242.576 355.883 239.374 352.681C238.1 351.407 235.051 353.016 234.154 351.492C232.832 349.245 235.795 344.99 237.59 343.893C242.753 340.738 242.103 345.184 239.969 343.761" stroke="#00ADB5" stroke-width="2" stroke-linecap="round" stroke-linejoin="round"/>
<path d="M418.609 169.709C420.58 180.081 428.696 210.367 423.975 200.924C423.466 199.907 423.042 199.044 422.999 197.889C422.841 193.618 422.522 189.153 421.048 185.099C419.815 181.709 420.073 178.194 420.073 174.586C420.073 173.863 418.844 168.176 418.962 168.137C420.203 167.723 425.325 173.947 426.251 175.019C430.933 180.445 435.667 186.681 439.013 193.039C440.736 196.311 441.254 197.484 437.144 197.997" stroke="#00ADB5" stroke-width="2" stroke-linecap="round" stroke-linejoin="round"/>
<path d="M418.121 190.679C422.698 188.357 427.058 186.501 431.778 184.826" stroke="#00ADB5" stroke-width="2" stroke-linecap="round" stroke-linejoin="round"/>
<path d="M431.289 170.196C435.976 177.216 440.439 184.686 445.894 191.168C446.672 192.093 448.306 193.772 448.306 191.602C448.306 188.64 446.665 185.58 445.921 182.768C444.731 178.271 443.623 173.753 442.615 169.22C441.643 164.844 442.328 166.478 443.97 169.762C446.692 175.204 449.556 180.162 453.346 184.99C455.899 188.244 456.164 186.432 456.164 183.581C456.164 178.403 453.636 174.145 451.774 169.491C449.786 164.519 449.919 157.733 447.655 153.206C446.775 151.445 446.653 157.024 446.409 158.978" stroke="#00ADB5" stroke-width="2" stroke-linecap="round" stroke-linejoin="round"/>
<path d="M457.629 152.639C457.753 153.212 459.569 167.412 462.777 165.808C464.183 165.105 464.527 162.955 465.975 162.231C468.32 161.058 470.854 163.135 471.773 165.157C474.204 170.505 471.406 176.699 467.004 179.952C460.906 184.459 462.994 176.345 462.994 174.099" stroke="#00ADB5" stroke-width="2" stroke-linecap="round" stroke-linejoin="round"/>
<path d="M460.553 151.661C459.675 154.06 458.08 165.196 457.599 160.874C457.303 158.207 457.829 156.178 458.114 153.612C458.791 147.526 463.448 152.422 461.529 149.223" stroke="#00ADB5" stroke-width="2" stroke-linecap="round" stroke-linejoin="round"/>
<path d="M428.026 472.026C427.863 471.728 420.827 459.61 421.436 459.262C422.281 458.779 423.856 459.249 424.85 458.876C427.786 457.775 430.151 455.502 432.568 453.622C435.109 451.645 438.592 467.157 439.365 470.423C440.301 474.376 442.739 479.63 438.178 481.911C434.066 483.967 428.656 483.347 424.167 483.247C416.844 483.084 411.783 471.063 410.928 465.08C410.306 460.724 404.273 446.742 410.75 443.945C412.483 443.196 415.429 443.708 417.31 443.708C420.002 443.708 422.351 442.105 425.087 442.105C429.442 442.105 430.759 447.544 426.957 441.57" stroke="#00ADB5" stroke-width="2" stroke-linecap="round" stroke-linejoin="round"/>
<path d="M440.315 445.845C441.075 448.61 443.516 463.967 449.933 460.034C451.154 459.286 452.043 457.471 452.486 456.175C453.668 452.717 453.917 449.829 451.269 447.181C449.285 445.197 445.454 441.147 442.571 441.036C435.423 440.761 441.729 448.768 440.85 447.448" stroke="#00ADB5" stroke-width="2" stroke-linecap="round" stroke-linejoin="round"/>
<path d="M441.383 421.264C446.661 429.608 454.624 438.784 457.828 448.395C458.236 449.621 458.251 450.454 459.015 451.601C460.169 453.331 460.714 455.842 461.806 453.204C463.386 449.384 466.988 445.993 469.82 443.052C473.314 439.424 473.792 440.499 467.564 440.499" stroke="#00ADB5" stroke-width="2" stroke-linecap="round" stroke-linejoin="round"/>
<path d="M478.254 418.594C477.591 420.091 467.525 440.011 477.244 435.484C479.178 434.583 481.151 433.182 480.896 430.883C480.649 428.666 478.798 426.925 477.838 425.006C477.296 423.921 475.128 418.695 475.879 420.197C478.11 424.66 481.107 432.609 484.428 435.929C488.296 439.797 490.614 435.732 486.803 433.555" stroke="#00ADB5" stroke-width="2" stroke-linecap="round" stroke-linejoin="round"/>
<path d="M484.131 420.733C499.003 444.324 480.184 417.854 484.517 413.223C488.709 408.741 493.663 417.348 495.233 420.08C497.967 424.84 500.658 437.188 496.42 424.474" stroke="#00ADB5" stroke-width="2" stroke-linecap="round" stroke-linejoin="round"/>
<path d="M502.829 400.427C502.577 401.318 494.6 423.767 500.573 421.681C503.112 420.794 505.661 418.788 507.015 416.486C508.578 413.829 509.305 410.186 508.173 407.254C507.4 405.256 506.565 403.12 505.501 401.258C502.972 396.833 509.787 410.508 511.824 415.18C514.806 422.021 521.991 446.006 505.056 441.243C497.669 439.165 504.626 427.677 503.898 427.677" stroke="#00ADB5" stroke-width="2" stroke-linecap="round" stroke-linejoin="round"/>
<path d="M292.535 290.036C295.19 289.307 297.454 288.571 299.321 286.471C300.057 285.643 300.157 284.586 300.534 283.582C301.022 282.279 300.414 280.612 299.997 279.361C299.663 278.36 301.486 277.799 302.137 277.757C303.255 277.685 304.111 278.396 305.185 278.46C306.477 278.535 307.855 278.949 308.751 279.957C309.358 280.641 310.173 280.802 310.845 281.395C311.483 281.958 311.987 282.94 312.448 283.661C313.783 285.747 314.161 288.181 314.549 290.566C314.735 291.711 314.848 292.956 314.655 294.112C314.425 295.491 314.67 296.818 314.125 298.141C313.748 299.055 313.146 300.265 312.289 300.805C311.41 301.358 310.592 301.558 310.368 302.706C309.898 305.106 311.103 307.456 310.639 309.877C310.228 312.026 307.385 312.356 305.629 312.699C304.416 312.937 302.213 313.308 301.044 312.673C298.867 311.49 297.291 310.011 295.676 308.127C294.246 306.458 293.705 304.018 293.516 301.885C293.323 299.707 293.321 297.342 293.37 295.139C293.403 293.677 293.828 292.209 293.967 290.752C294.08 289.559 294.458 289.464 293.847 290.991" stroke="#00ADB5" stroke-linecap="round" stroke-linejoin="round"/>
<path d="M307.922 279.181C308.819 276.868 309.806 274.556 310.493 272.17C310.802 271.098 310.876 269.963 311.262 268.916C311.71 267.7 311.931 266.325 312.123 265.053C312.261 264.141 312.328 262.526 313.164 261.951C313.773 261.532 314.121 260.573 314.774 260.07C315.613 259.422 316.804 258.82 317.398 257.956C317.982 257.107 318.605 255.353 318.114 254.371C317.841 253.825 317.878 253.237 317.61 252.701C317.261 252.002 316.947 251.435 316.682 250.68C316.451 250.018 315.724 248.698 316.57 248.228C318.64 247.078 318.783 248.888 319.426 250.54C319.758 251.394 319.808 252.436 320.115 253.324C320.325 253.931 320.698 253.492 320.983 253.84C321.413 254.365 321.434 255.022 321.758 255.59C322.244 256.44 321.674 258.164 321.427 258.996C320.971 260.536 320.501 261.93 319.823 263.409C318.08 267.219 315.238 270.426 313.289 274.118C312.548 275.523 311.954 276.938 311.593 278.492C311.388 279.375 310.785 280.216 310.785 281.149C310.785 282 310.574 282.437 311.023 281.089" stroke="#00ADB5" stroke-linecap="round" stroke-linejoin="round"/>
<path d="M317.226 250.434C315.707 250.667 314.051 250.756 312.694 251.435C312.507 251.528 312.797 251.285 312.932 251.269C314.751 251.055 316.737 249.433 318.393 248.645C319.624 248.058 321.309 246.736 322.713 246.736C323.12 246.736 321.362 247.869 321.162 248.048" stroke="#00ADB5" stroke-linecap="round" stroke-linejoin="round"/>
<path d="M315.672 253.059C317.362 252.077 320.306 251.011 321.543 249.361C321.663 249.201 321.752 248.984 321.927 248.884C322.542 248.533 321.456 248.924 321.278 249.003" stroke="#00ADB5" stroke-linecap="round" stroke-linejoin="round"/>
<path d="M316.871 254.608C318.9 253.831 322.608 253.141 323.723 250.91C323.884 250.588 323.526 250.672 323.312 250.672" stroke="#00ADB5" stroke-linecap="round" stroke-linejoin="round"/>
<path d="M319.014 254.369C318.885 257.104 318.912 259.886 317.351 262.228C316.589 263.371 316.061 264.131 315.794 265.469C315.508 266.899 315.194 268.093 314.541 269.398C313.897 270.687 313.142 271.74 312.507 272.977C312.178 273.618 311.368 274.235 311.526 275.005C311.606 275.393 311.413 275.742 311.287 276.105C310.915 277.181 310.218 278.13 309.564 279.06C309.121 279.691 309.126 280.824 309.71 279.657" stroke="#00ADB5" stroke-linecap="round" stroke-linejoin="round"/>
<path d="M309.352 276.438C310.428 276.671 312.065 277.392 313.169 277.392C313.189 277.392 312.231 276.235 312.095 276.08" stroke="#00ADB5" stroke-linecap="round" stroke-linejoin="round"/>
<path d="M310.066 271.547C311.589 272.197 313.114 272.841 314.626 273.515C314.98 273.673 314.959 273.696 314.838 273.575C314.576 273.313 314.353 273.029 314.122 272.74" stroke="#00ADB5" stroke-linecap="round" stroke-linejoin="round"/>
<path d="M311.5 268.328C313.334 268.898 315.165 269.512 317.02 270.011C317.228 270.067 317.519 270.179 317.318 269.972C316.918 269.558 316.458 269.192 316.033 268.805" stroke="#00ADB5" stroke-linecap="round" stroke-linejoin="round"/>
<path d="M312.453 264.27C314.541 265.29 316.62 266.39 318.762 267.298C319.113 267.447 319.232 267.557 319.159 267.278C319.061 266.9 318.915 266.543 318.775 266.178" stroke="#00ADB5" stroke-linecap="round" stroke-linejoin="round"/>
<path d="M315.078 261.406C315.268 261.498 321.043 264.63 320.565 263.434" stroke="#00ADB5" stroke-linecap="round" stroke-linejoin="round"/>
<path d="M316.273 259.5C318.017 259.91 319.778 260.283 321.522 260.574" stroke="#00ADB5" stroke-linecap="round" stroke-linejoin="round"/>
<path d="M318.18 257.592C318.975 257.63 319.77 257.669 320.565 257.711" stroke="#00ADB5" stroke-linecap="round" stroke-linejoin="round"/>
<path d="M302.433 293.373C301.604 293.702 296.499 294.972 296.469 296.382C296.457 296.932 296.469 297.484 296.535 298.032C296.74 299.73 297.922 300.62 299.371 301.431C301.213 302.462 303.196 302.495 305.203 301.908C307.11 301.351 308.351 299.24 307.588 297.429C307.43 297.053 307.978 296.976 307.622 296.541C307.275 296.117 307.046 296.363 306.488 296.474" stroke="#00ADB5" stroke-linecap="round" stroke-linejoin="round"/>
<path d="M299.934 297.788C300.883 295.387 302.066 292.988 302.617 290.453C302.762 289.789 302.94 289.23 303.3 288.63C304.061 287.362 304.73 286.01 305.182 284.601C305.611 283.265 305.638 281.946 306.202 280.638C306.404 280.172 307.607 278.774 307.09 279.419" stroke="#00ADB5" stroke-linecap="round" stroke-linejoin="round"/>
<path d="M309.353 280.611C308.911 283.374 308.246 286.018 307.776 288.749C307.516 290.263 307.087 291.528 307.087 293.122C307.087 294.263 307.494 295.213 307.233 296.356C306.932 297.673 306.661 297.024 306.133 296.118" stroke="#00ADB5" stroke-linecap="round" stroke-linejoin="round"/>
<path d="M308.159 280.611C307.33 282.336 305.535 285.172 305.535 287.351C305.535 288.589 305.615 289.904 305.528 291.161C305.425 292.655 304.258 294.593 303.56 295.879C303.328 296.306 303.027 296.636 302.884 297.098C302.706 297.677 302.833 297.711 302.434 297.072" stroke="#00ADB5" stroke-linecap="round" stroke-linejoin="round"/>
<path d="M299.574 295.285C301.606 296.739 305.192 299.704 307.685 297.141C308.074 296.741 308.636 295.888 308.852 295.378C309.146 294.681 308.192 295.273 307.566 295.405" stroke="#00ADB5" stroke-linecap="round" stroke-linejoin="round"/>
<path d="M301.961 293.135C303.119 293.098 305.462 293.411 306.586 292.83C306.624 292.811 306.5 292.844 306.467 292.87C306.356 292.959 306.126 292.814 306.016 292.777" stroke="#00ADB5" stroke-linecap="round" stroke-linejoin="round"/>
<path d="M303.27 288.723C304.12 288.948 307.196 290.258 307.325 288.842" stroke="#00ADB5" stroke-linecap="round" stroke-linejoin="round"/>
<path d="M304.703 285.145C305.757 285.833 310.034 289.018 309.355 285.622" stroke="#00ADB5" stroke-linecap="round" stroke-linejoin="round"/>
<path d="M305.895 283.473C306.968 283.751 308.042 284.029 309.115 284.308" stroke="#00ADB5" stroke-linecap="round" stroke-linejoin="round"/>
<path d="M311.144 283.473C312.471 284.723 315.122 287.633 315.2 289.821C315.264 291.605 315.2 293.331 315.2 295.136C315.2 296.448 315.451 297.85 315.319 299.098C315.147 300.737 312.63 300.758 313.232 302.683C313.433 303.326 313.258 303.706 313.822 304.168C314.308 304.566 314.662 305.027 314.842 305.659C315.263 307.132 314.424 308.462 313.411 309.476C312.776 310.11 311.953 311.386 311.204 311.802C310.834 312.007 310.077 311.861 309.653 311.861C309.26 311.861 308.465 312.117 308.109 312.279C307.586 312.517 306.919 312.097 306.254 312.338" stroke="#00ADB5" stroke-linecap="round" stroke-linejoin="round"/>
<path d="M292.535 290.395C293.016 291.991 293.374 293.321 294.179 294.689C294.509 295.251 294.464 295.761 294.318 296.418C294.148 297.182 293.59 298.973 294.026 299.758C294.696 300.964 294.682 302.24 294.682 303.575C294.682 304.861 296.693 305.42 297.353 306.08C298.332 307.059 297.907 308.31 299.52 308.737C299.872 308.83 300.423 308.836 300.699 309.062C300.908 309.233 301.153 309.661 301.428 309.711C301.996 309.815 302.757 309.702 303.27 309.93C303.699 310.12 304.012 310.395 304.404 310.612C304.835 310.852 305.424 310.583 305.895 310.818C307.499 311.62 306.782 310.857 305.656 309.956" stroke="#00ADB5" stroke-linecap="round" stroke-linejoin="round"/>
<path d="M173.836 230.48C170.649 234.559 156.963 250.879 168.624 254.571C172.243 255.717 176.954 253.083 180.854 253.463C186.37 254.001 189.47 258.69 190.827 263.559C192.39 269.166 183.769 279.136 187.913 282.15C195.012 287.313 205.235 278.583 211.101 285.516C214.426 289.445 210.929 295.154 212.989 285.885" stroke="#00ADB5" stroke-linecap="round" stroke-linejoin="round"/>
<path d="M333.906 166.951C336.979 171.022 344.289 180.191 347.039 185.419C349.38 189.87 346.43 189.691 343.92 187.923C340.919 185.808 341.34 181.311 342.196 178.196C345.088 167.681 363.805 158.014 365.918 174.174C366.66 179.851 361.586 189.396 354.673 187.143C345.546 184.169 346.128 170.24 353.031 165.063C360.092 159.768 371.664 165.853 371.664 174.503C371.664 184.106 360.249 187.079 355.822 178.607C351.798 170.906 358.928 162.851 366.575 161.698C369.387 161.274 376.651 164.522 371.581 166.212" stroke="#00ADB5" stroke-linecap="round" stroke-linejoin="round"/>
<path d="M488.302 240.086C483.519 244.839 468.401 255.922 481.12 260.237C488.521 262.748 495.372 258.631 499.958 253.014C505.018 246.815 505.876 237.012 497.824 232.986C491.561 229.855 486.164 224.825 480.915 232.699" stroke="#00ADB5" stroke-linecap="round" stroke-linejoin="round"/>
<path d="M651.558 305.093C642.423 310.534 628.554 317.106 642.694 322.248C644.867 323.038 646.282 322.523 648.193 321.18C655.261 316.214 655.677 314.224 655.252 306.57C654.97 301.502 647.559 302.66 644.171 304.354C639.174 306.852 635.689 311.852 633.665 316.912C630.941 323.721 645.02 323.304 646.962 315.106C648.179 309.967 642.301 302.667 638.261 308.95C632.91 317.275 641.076 324.72 646.223 316.009C651.153 307.666 639.634 304.225 636.538 313.957C632.466 326.753 656.668 312.86 647.865 308.458C642.617 305.834 633.757 322.495 643.432 318.349C655.181 313.314 642.037 305.894 642.037 317.651C642.037 327.192 657.817 313.346 647.536 309.607C645.186 308.752 642.866 316.263 644.54 317.938C647.453 320.851 652.515 313.308 652.256 310.592C651.146 298.934 639.734 328.573 653.323 314.983C656.427 311.879 656.3 306.269 651.148 309.566C648.108 311.512 646.184 319.771 651.928 317.856C657.444 316.018 657.443 305.8 651.517 308.171C647.901 309.617 646.591 314.737 642.694 313.957" stroke="#00ADB5" stroke-linecap="round" stroke-linejoin="round"/>
<path d="M571.779 381.182C570.254 382.865 545.913 412.898 558.153 397.598C560.952 394.099 563.525 390.656 567.346 388.2C569.702 386.685 571.971 385.75 573.995 383.726C576.207 381.514 573.071 381.66 572.558 386.271C572.112 390.286 572.454 407.816 571.779 407.776C567.216 407.507 564.224 403.016 560 401.538C557.737 400.746 551.028 401.886 552.9 400.389C557.475 396.728 571.489 386.232 567.346 390.375C564.207 393.514 557.756 405.31 559.959 401.456C561.525 398.715 565.761 389.784 565.13 391.278C563.831 394.354 561.571 399.623 561.765 403.015C561.949 406.235 568.343 398.313 568.742 397.516C571.706 391.588 565.573 404.919 567.757 401.743C569.724 398.882 576.373 391.609 571.614 398.747C570.573 400.309 576.544 393.102 575.472 394.643C575.161 395.09 572.455 399.631 574.036 398.049C579.7 392.386 571.354 398.275 570.301 396.695" stroke="#00ADB5" stroke-linecap="round" stroke-linejoin="round"/>
<path d="M522.283 503.811C524.869 500.129 539.646 483.883 527.495 483.168C525.442 483.047 521.207 482.381 519.492 483.784C515.414 487.12 517.182 496.12 522.693 497.122C530.001 498.451 536.85 488.457 528.932 484.604C520.658 480.58 501.13 496.746 509.56 503.401C526.159 516.505 541.168 478.425 519.697 483.907C500.223 488.879 517.379 508.939 526.223 496.014C535.691 482.175 506.495 482.056 511.653 497.532C514.198 505.165 522.548 501.482 524.048 495.316C526.246 486.278 517.257 490.01 517.112 496.26C516.956 502.958 527.276 490.838 521.093 491.376C516.624 491.765 516.183 497.902 512.68 497.902" stroke="#00ADB5" stroke-linecap="round" stroke-linejoin="round"/>
<path d="M228.27 434.372C229.762 441.141 232.702 461.618 232.702 454.687C232.702 449.902 229.047 445.437 228.311 440.651C228.053 438.979 228.584 434.033 227.162 432.895C226.188 432.116 235.387 439.276 237.832 440.651C242.293 443.161 245.491 447.848 249.365 442.868C251.224 440.476 256.696 440.147 257.45 439.543C262.92 435.167 262.418 428.637 263.688 422.922C264.141 420.884 262.99 429.881 262.99 432.525C262.99 435.909 263.601 440.388 264.509 443.565C265.798 448.078 265.282 435.344 264.057 432.895C262.068 428.916 262.251 425.386 262.251 421.075C262.251 419.373 274.601 440.706 272.429 442.334C271.522 443.015 259.429 439.679 255.767 440.857C252.612 441.871 249.73 443.054 246.738 444.55C245.92 444.959 244.57 446.449 245.096 446.028C246.972 444.527 252.71 440.425 250.432 441.185C247.302 442.228 244.227 445.257 241.403 446.931C236.079 450.086 234.356 449.645 232.128 455.057C231.806 455.837 235.781 455.737 236.56 455.96C242.151 457.557 245.664 453.202 250.596 451.199C256.961 448.613 264.28 443.302 271.116 442.498C276.276 441.891 268.43 440.082 268.161 439.543" stroke="#00ADB5" stroke-linecap="round" stroke-linejoin="round"/>
<path d="M510.463 149.959C524.385 145.496 546.934 140.363 559.383 130.178C561.642 128.329 565.14 126.558 564.349 122.996C561.375 109.614 554.904 106.475 542.146 107.893C535.069 108.679 528.277 115.207 521.708 117.866C514.945 120.603 508.178 124.2 502.008 128.126C495.764 132.099 499.382 134.068 499.382 140.93C499.382 144.704 501.636 149.959 505.661 149.959C507.495 149.959 512.754 148.482 507.549 148.482C503.463 148.482 497.122 149.101 493.472 147.168C490.685 145.693 496.187 142.787 497.494 142.613C502.163 141.99 492.143 146.558 491.133 146.881C489.053 147.547 498.636 140.285 493.308 141.997C487.533 143.854 496.104 138.876 497.904 137.975C499.937 136.959 498.164 138.568 498.643 137.729C499.41 136.387 503.85 131.455 499.833 135.472C498.488 136.817 502.868 133.178 504.348 131.983C507.134 129.733 503.599 133.147 502.911 133.707C499.743 136.286 499 134.205 496.427 135.349C495.351 135.827 492.733 137.412 492.733 135.554C492.733 132.348 504.046 130.887 506.112 130.793C518.766 130.218 527.621 124.636 539.273 121.723C544.88 120.322 551.009 118.303 556.264 115.814C560.161 113.968 567.968 108.188 572.106 109.37C573.731 109.835 548.647 124.43 555.854 119.671C561.815 115.735 568.652 112.97 559.711 120.369C552.549 126.296 565.149 119.392 566.155 119.794C567.961 120.517 555.031 127.902 564.882 123.365C568.65 121.63 571.777 121.544 571.777 117.455C571.777 111.905 573.296 105.326 566.237 107.893C558.091 110.855 551.554 117.186 543.131 119.671C537.325 121.385 531.668 123.548 525.976 125.581C519.371 127.94 507.415 130.578 502.706 136.334C500.196 139.401 495.726 151.356 504.963 146.184C513.437 141.438 514.786 131.838 519.327 124.268C521.583 120.508 515.396 132.209 514.485 136.498C513.436 141.431 518.078 147.107 523.39 146.184C529.217 145.17 535.346 137.124 537.426 132.23C547.423 108.708 529.29 131.522 534.43 136.662C539.886 142.117 548.198 127.666 549.287 124.104C550.599 119.811 551.369 114.52 552.94 110.437C554.976 105.142 541.972 111.106 540.751 111.709C533.987 115.052 529.265 119.511 524.663 125.417C522.997 127.555 516.311 137.617 520.887 139.904C527.019 142.97 534.547 133.44 534.718 128.495C535.295 111.742 521.502 120.328 513.171 126.894C508.024 130.952 512.496 139.061 513.418 138.14" stroke="#00ADB5" stroke-linecap="round" stroke-linejoin="round"/>
<path d="M323.563 550.353C323.242 550.609 311.086 561.093 311.086 558.109C311.086 556.361 312.432 554.491 313.631 553.349C316.002 551.091 325.367 549.353 323.111 554.867C321.598 558.566 315.415 564.016 313.672 557.042C312.948 554.146 317.919 548.335 320.936 550.804C324.264 553.527 317.109 556.996 314.862 555.77C310.848 553.58 315.669 545.784 319.541 547.398C323.59 549.085 318.021 553.698 316.175 554.621C311.861 556.778 312.465 553.29 310.266 551.091" stroke="#00ADB5" stroke-linecap="round" stroke-linejoin="round"/>
<path d="M123.366 549.614C127.624 556.631 135.734 563.912 127.47 570.299C125.338 571.946 112.763 578.532 113.516 570.873C114.433 561.547 128.333 561.339 129.193 552.98C130.044 544.713 110.301 547.828 105.8 542.227C102.981 538.719 100.707 530.944 101.368 526.468C101.625 524.724 106.046 521.341 105.595 524.498C104.769 530.277 86.1342 545.082 97.1818 549.943C104.589 553.202 106.5 544.95 111.956 542.966C123.196 538.879 106.375 569.193 106.375 561.434" stroke="#00ADB5" stroke-linecap="round" stroke-linejoin="round"/>
<path d="M485.345 645.65C481.923 653.746 475.003 678.694 475.003 669.905C475.003 668.535 475.268 667.452 475.742 666.17C477.966 660.152 480.54 654.551 484.278 649.262C486.318 646.375 488.749 637.921 491.665 644.337C493.026 647.33 496.918 655.664 495.277 658.947C493.217 663.068 486.821 665.432 482.554 665.596C481.443 665.639 469.79 667.17 473.567 663.708C478.004 659.64 482.298 647.267 488.998 646.43C490.032 646.301 492.193 646.992 493.102 647.497C494.702 648.386 492.753 649.992 491.994 651.232C491.083 652.718 483.881 662.764 483.868 662.313C483.664 655.581 490.57 645.808 494.292 640.725C495.627 638.903 488.525 651.272 486.905 654.064C485.651 656.223 487.287 660.813 481.652 659.686" stroke="#00ADB5" stroke-linecap="round" stroke-linejoin="round"/>
<path d="M256.337 51.7103C253.042 64.6044 250.104 76.8897 248.909 90.0422C248.789 91.3578 247.958 92.2083 248.786 93.2433C250.018 94.7836 253.277 84.9899 254.531 82.3676C258.507 74.056 262.986 70.7759 262.986 60.5751C262.986 59.1032 262.986 50.6314 262.986 56.2248C262.986 60.9735 263.886 65.6669 263.56 70.4248C263.314 74.021 259.862 83.7263 262.411 81.1774C266.345 77.2433 263.193 57.5178 257.035 57.0046C248.629 56.304 244.575 74.5246 243.615 80.1925C242.497 86.7869 247.146 89.5477 252.274 84.4196C259.274 77.4203 260.792 63.0303 254.778 54.8294C246.515 43.5628 241.094 63.8916 240.413 68.8653C238.875 80.116 245.159 83.7212 252.602 75.719C255.34 72.7758 260.86 67.6867 259.702 63.1196C258.162 57.0446 249.183 62.9437 247.39 65.582C244.848 69.3231 244.881 78.6415 248.991 81.3006C252.828 83.7832 256.562 73.4959 256.132 70.9173C254.309 59.9812 233.695 77.3418 243.943 83.5578C252.862 88.9678 258.775 64.7643 247.801 67.7572C244.745 68.5907 237.487 76.8271 243.779 76.8271" stroke="#00ADB5" stroke-linecap="round" stroke-linejoin="round"/>
<path d="M60.5766 262.246C57.257 271.652 54.8672 277.655 46.4587 282.931C44.3475 284.255 41.5574 286.598 41.1234 289.251C40.1961 294.918 49.1351 301.163 54.2153 299.47C64.9198 295.902 48.7216 285.307 46.9922 282.233C43.9811 276.88 54.864 267.264 59.8789 270.085C63.7826 272.281 65.513 279.933 63.2032 283.669C59.8383 289.112 52.6059 289.328 46.9512 288.471C42.4477 287.789 33.4271 288.716 36.0754 295.407C39.3893 303.779 55.0295 299.391 57.3755 292.288C59.6595 285.372 47.2944 282.766 49.9471 276.282C51.7693 271.828 57.5227 266.268 62.6287 266.268C68.7446 266.268 62.6369 277.692 61.7258 279.483C57.7023 287.391 51.5463 288.18 43.75 290.318C29.0766 294.341 44.8841 294.907 45.802 290.318" stroke="#00ADB5" stroke-linecap="round" stroke-linejoin="round"/>
<path d="M42.847 363.456C41.2788 369.362 36.6423 379.439 37.1013 385.865C37.3163 388.875 38.1388 379.915 38.4967 376.918C39.1785 371.207 39.9585 364.758 43.0111 359.763C43.5529 358.876 56.082 374.516 57.2112 377.082C60.2331 383.95 56.4497 382.642 51.7117 384.88C49.0784 386.123 31.1094 392.466 31.1094 390.789C31.1094 389.033 34.497 385.462 35.2955 383.977C37.7949 379.327 40.4766 373.489 41.5337 368.299C43.7913 357.216 42.1082 380.024 42.1082 381.761C42.1082 382.815 42.518 388.984 40.0562 388.984C36.9753 388.984 42.1391 383.185 43.1753 380.283C44.2742 377.206 48.6483 368.138 47.5666 364.893C46.0347 360.297 45.2683 374.374 45.1042 379.216C44.993 382.498 43.405 387.975 45.966 382.663C46.7821 380.971 49.4165 374.031 49.3724 374.537C49.001 378.809 47.2793 383.211 47.2793 387.506C47.2793 391.902 49.598 377.752 53.5996 375.933C54.5945 375.481 53.1892 383.822 53.1892 385.044C53.1892 387.267 55.3233 376.5 55.3233 378.724C55.3233 379.343 54.4378 383.089 53.7637 381.925C51.001 377.153 48.9225 374.204 43.2574 372.485C40.6772 371.703 32.4761 372.239 35.1724 372.239C36.9447 372.239 39.7281 366.072 41.6978 367.684C44.3111 369.822 40.7246 376.647 39.892 378.97C38.5288 382.772 37.6753 377.425 41.0412 377.821C44.5483 378.233 40.9702 391.183 42.929 388.245C43.8382 386.881 46.5921 380.153 46.4996 380.94C44.7114 396.139 45.0835 376.784 48.0181 381.186" stroke="#00ADB5" stroke-linecap="round" stroke-linejoin="round"/>
<path d="M408.518 162.519C417.917 162.055 426.994 165.53 425.509 154.393C424.773 148.875 421.68 139.853 423.293 134.448C425.004 128.709 435.512 115.766 426.535 111.711C419.007 108.311 409.168 117.926 407.779 124.434C407.202 127.141 407.325 135.597 411.801 135.597C415.184 135.597 417.345 132.276 420.297 135.227C424.155 139.086 424.844 142.606 422.102 147.457C415.521 159.102 389.483 146.096 403.511 132.067C405.434 130.144 413.039 121.326 416.644 123.859C421.604 127.344 420.933 136.418 418.368 140.932C415.81 145.434 406.423 150.147 402.731 144.379C400.907 141.529 401.78 139.619 404.824 139.619" stroke="#00ADB5" stroke-linecap="round" stroke-linejoin="round"/>
<path d="M487.22 231.653C488.088 231.303 515.112 217.961 513.856 225.292C513.181 229.226 513.631 232.895 514.184 236.824C514.395 238.327 518.059 250.039 514.389 250.039C507.552 250.039 500.878 246.605 494.033 247.905C491.195 248.444 485.543 250.389 485.332 245.853C485.174 242.452 482.349 227.164 489.067 228.657C494.604 229.888 494.845 225.493 490.914 235.265C490.356 236.652 486.688 247.075 487.302 246.592C493.447 241.764 496.818 232.479 502.446 226.851C505.961 223.337 499.936 237.442 499.204 239.205C495.465 248.207 505.023 231.575 506.099 229.929C510.823 222.705 507.236 235.639 506.509 237.768C504.324 244.169 511.042 232.217 513.733 230.627C522.648 225.359 514.225 243.555 512.337 239.779" stroke="#00ADB5" stroke-linecap="round" stroke-linejoin="round"/>
<path d="M414.428 370.84C414.853 381.698 414.663 387.622 423.868 380.772C426.479 378.828 425.37 383.427 424.73 384.547C423.66 386.419 417.388 395.831 423.704 392.222C425.302 391.308 429.613 389.484 429.613 393.002C429.613 393.557 427.681 400.352 429.572 398.46C432.673 395.359 432.728 383.672 432.897 379.13C432.933 378.139 433.367 376.985 432.486 377.488C427.958 380.076 425.808 393.622 423.457 398.912C421.428 403.477 415.578 398.098 412.212 395.957C405.834 391.898 409.845 394.78 409.996 394.479" stroke="#00ADB5" stroke-linecap="round" stroke-linejoin="round"/>
<path d="M363.455 467.617C363.427 467.961 362.56 489.168 362.716 478.862C362.764 475.716 362.673 472.568 362.716 469.423C362.838 460.489 364.433 464.634 368.297 468.315C370.069 470.002 376.57 473.645 375.521 477.056C375.211 478.061 364.775 479.878 363.126 480.504C361.889 480.973 354.59 485.569 354.59 485.346C354.59 479.857 356.523 473.917 357.175 468.438C358.557 456.835 366.584 487.894 367.107 480.052C367.23 478.206 367.148 467.217 367.148 469.956C367.148 471.997 368.626 482.876 368.626 475.743C368.626 474.129 368.626 472.514 368.626 470.9C368.626 470.139 369.041 473.782 369.323 473.075C370.347 470.516 368.626 465.371 368.626 471.639C368.626 478.675 366.653 473.609 362.347 473.609C358.662 473.609 356.552 487.11 358.448 483.951C360.108 481.184 356.837 469.916 358.283 475.702C359.041 478.731 360.86 475.383 361.977 474.265" stroke="#00ADB5" stroke-linecap="round" stroke-linejoin="round"/>
<rect x="260.047" y="762.186" width="98.1976" height="202.68" rx="3.51536" fill="#00ADB5" stroke="black" stroke-width="1.64486" stroke-linejoin="round"/>
<rect x="3.16406" y="820.715" width="98.1976" height="144.154" rx="3.51536" fill="#EEEEEE" stroke="black" stroke-width="1.64486" stroke-linejoin="round"/>
<rect x="458.801" y="537.512" width="98.1976" height="427.356" rx="3.51536" fill="#00ADB5" stroke="black" stroke-width="1.64486" stroke-linejoin="round"/>
<path d="M133.39 485.492L234.352 485.492C234.352 485.492 218.262 632.543 196.362 656.651C174.463 680.76 59.849 746.879 59.849 746.879L21.25 723.189L93.2063 609.866C93.2063 609.866 85.2931 565.674 133.39 485.492Z" fill="#00ADB5" stroke="black" stroke-width="1.39887"/>
<path d="M61.4814 745.553L21.2504 723.194L0.8893 745.117C0.8893 745.117 35.2137 765.013 59.1609 772.81L49.0186 759.432L61.4814 745.553Z" fill="#EEEEEE" stroke="black" stroke-width="1.39887" stroke-linejoin="round"/>
<path d="M133.821 483.35L244.135 483.205C244.135 483.205 305.459 537.132 313.185 568.772C320.912 600.413 312.101 715.239 312.101 715.239L267.515 734.952L221.485 613.668C221.485 613.668 173.36 568.08 133.821 483.35Z" fill="#00ADB5"/>
<path d="M133.821 483.35L133.82 482.651C133.581 482.651 133.359 482.773 133.231 482.975C133.102 483.176 133.086 483.429 133.187 483.646L133.821 483.35ZM244.135 483.205L244.597 482.679L244.399 482.505L244.135 482.505L244.135 483.205ZM312.101 715.239L312.384 715.879L312.766 715.71L312.798 715.293L312.101 715.239ZM267.515 734.952L266.861 735.2L267.123 735.89L267.798 735.592L267.515 734.952ZM221.485 613.668L222.139 613.42L222.083 613.271L221.966 613.161L221.485 613.668ZM133.822 484.049L244.136 483.904L244.135 482.505L133.82 482.651L133.822 484.049ZM311.818 714.6L267.232 734.312L267.798 735.592L312.384 715.879L311.818 714.6ZM268.169 734.704L222.139 613.42L220.831 613.917L266.861 735.2L268.169 734.704ZM221.485 613.668C221.966 613.161 221.966 613.161 221.966 613.16C221.966 613.16 221.965 613.16 221.965 613.159C221.963 613.158 221.961 613.156 221.959 613.153C221.953 613.148 221.945 613.14 221.933 613.129C221.911 613.108 221.877 613.075 221.831 613.031C221.74 612.944 221.604 612.812 221.425 612.636C221.065 612.284 220.532 611.756 219.838 611.053C218.451 609.647 216.422 607.541 213.864 604.749C208.746 599.164 201.508 590.833 193.034 579.855C176.086 557.9 154.199 525.365 134.455 483.054L133.187 483.646C152.982 526.065 174.927 558.688 191.927 580.71C200.427 591.721 207.691 600.083 212.832 605.694C215.403 608.499 217.443 610.617 218.842 612.035C219.542 612.744 220.081 613.278 220.446 613.635C220.628 613.814 220.767 613.949 220.861 614.039C220.908 614.084 220.943 614.118 220.967 614.141C220.979 614.152 220.988 614.161 220.995 614.167C220.998 614.17 221 614.172 221.002 614.174C221.002 614.174 221.003 614.175 221.004 614.175C221.004 614.176 221.004 614.176 221.485 613.668ZM244.135 483.205C243.674 483.73 243.674 483.73 243.674 483.73C243.675 483.731 243.675 483.731 243.676 483.732C243.678 483.734 243.681 483.736 243.684 483.739C243.692 483.746 243.702 483.755 243.717 483.768C243.746 483.794 243.79 483.833 243.848 483.884C243.963 483.986 244.135 484.139 244.36 484.34C244.81 484.741 245.471 485.335 246.315 486.101C248.004 487.635 250.426 489.862 253.357 492.633C259.22 498.177 267.116 505.896 275.252 514.601C283.39 523.308 291.757 532.991 298.569 542.462C305.391 551.949 310.607 561.163 312.506 568.938L313.865 568.606C311.9 560.562 306.554 551.169 299.705 541.646C292.845 532.107 284.433 522.376 276.274 513.646C268.113 504.914 260.195 497.174 254.319 491.617C251.38 488.838 248.951 486.605 247.256 485.066C246.408 484.296 245.744 483.7 245.292 483.296C245.066 483.094 244.892 482.94 244.775 482.837C244.717 482.785 244.673 482.746 244.643 482.719C244.628 482.706 244.617 482.696 244.609 482.69C244.605 482.686 244.602 482.684 244.6 482.682C244.599 482.681 244.599 482.681 244.598 482.68C244.598 482.68 244.597 482.679 244.135 483.205ZM312.506 568.938C314.417 576.764 315.316 589.801 315.576 605.018C315.836 620.214 315.46 637.52 314.841 653.845C314.223 670.168 313.364 685.504 312.659 696.76C312.306 702.387 311.992 706.994 311.767 710.194C311.654 711.794 311.563 713.043 311.5 713.891C311.469 714.315 311.445 714.639 311.428 714.856C311.42 714.965 311.414 715.048 311.41 715.103C311.408 715.131 311.406 715.151 311.405 715.165C311.404 715.172 311.404 715.177 311.404 715.181C311.404 715.182 311.404 715.184 311.403 715.185C311.403 715.185 311.403 715.186 312.101 715.239C312.798 715.293 312.798 715.292 312.798 715.291C312.798 715.291 312.798 715.289 312.799 715.288C312.799 715.284 312.799 715.279 312.8 715.272C312.801 715.258 312.802 715.237 312.805 715.209C312.809 715.154 312.815 715.071 312.823 714.962C312.84 714.743 312.864 714.418 312.895 713.994C312.958 713.144 313.049 711.894 313.162 710.293C313.388 707.09 313.702 702.479 314.055 696.847C314.76 685.584 315.621 670.236 316.239 653.897C316.858 637.561 317.236 620.227 316.975 604.994C316.714 589.782 315.817 576.601 313.865 568.606L312.506 568.938Z" fill="black"/>
<path fill-rule="evenodd" clip-rule="evenodd" d="M230.574 303.441C233.082 302.526 235.471 301.188 237.651 299.331C254.11 285.308 247.053 264.152 237.091 253.137C227.13 242.123 166.194 246.516 194.94 297.542C195.062 297.615 195.186 297.689 195.313 297.764C198.526 307.989 195.816 316.76 192.564 327.284C191.237 331.576 189.821 336.16 188.68 341.254L219.167 339.069C227.547 327.69 230.724 316.22 230.574 303.441Z" fill="#F5B9AB"/>
<path d="M237.651 299.331L237.118 298.705L237.651 299.331ZM230.574 303.441L230.292 302.668C229.964 302.788 229.748 303.102 229.752 303.451L230.574 303.441ZM237.091 253.137L237.701 252.586L237.701 252.586L237.091 253.137ZM194.94 297.542L194.223 297.945C194.293 298.069 194.394 298.173 194.515 298.246L194.94 297.542ZM195.313 297.764L196.098 297.517C196.037 297.323 195.905 297.158 195.73 297.055L195.313 297.764ZM192.564 327.284L191.778 327.041L192.564 327.284ZM188.68 341.254L187.877 341.074C187.82 341.328 187.887 341.594 188.056 341.791C188.226 341.988 188.479 342.093 188.738 342.074L188.68 341.254ZM219.167 339.069L219.226 339.89C219.466 339.873 219.686 339.751 219.829 339.557L219.167 339.069ZM237.118 298.705C235.017 300.495 232.715 301.784 230.292 302.668L230.856 304.214C233.45 303.267 235.926 301.881 238.184 299.957L237.118 298.705ZM236.482 253.689C241.366 259.09 245.532 266.978 246.462 275.198C247.387 283.381 245.113 291.893 237.118 298.705L238.184 299.957C246.648 292.746 249.075 283.668 248.096 275.014C247.122 266.397 242.778 258.199 237.701 252.586L236.482 253.689ZM195.656 297.138C188.525 284.48 187.04 274.859 188.797 267.725C190.548 260.613 195.567 255.793 201.852 252.818C208.15 249.837 215.662 248.74 222.219 249.075C225.494 249.242 228.505 249.764 230.987 250.572C233.484 251.385 235.372 252.462 236.482 253.689L237.701 252.586C236.32 251.059 234.126 249.864 231.496 249.008C228.851 248.147 225.692 247.605 222.302 247.432C215.53 247.087 207.738 248.212 201.149 251.331C194.548 254.456 189.1 259.613 187.2 267.332C185.304 275.028 186.981 285.091 194.223 297.945L195.656 297.138ZM195.73 297.055C195.606 296.982 195.484 296.909 195.364 296.837L194.515 298.246C194.64 298.321 194.767 298.397 194.897 298.473L195.73 297.055ZM193.35 327.527C196.591 317.037 199.398 308.023 196.098 297.517L194.529 298.01C197.653 307.956 195.04 316.483 191.778 327.041L193.35 327.527ZM189.482 341.434C190.615 336.377 192.022 331.822 193.35 327.527L191.778 327.041C190.453 331.331 189.027 335.944 187.877 341.074L189.482 341.434ZM219.108 338.249L188.621 340.434L188.738 342.074L219.226 339.89L219.108 338.249ZM229.752 303.451C229.9 316.064 226.771 327.357 218.505 338.582L219.829 339.557C228.323 328.024 231.548 316.376 231.396 303.431L229.752 303.451Z" fill="black"/>
<path d="M189.475 266.729C184.705 273.367 189.843 289.76 193.634 293.86C162.219 276.429 182.108 237.1 191.801 244.272C193.38 229.731 210.065 224.601 221.438 236.898C249.954 213.87 251.454 253.11 241.389 259.077C231.325 265.045 219.113 259.362 212.776 262.439C206.439 265.516 202.528 284.156 200.475 273.811C198.422 263.465 195.439 258.433 189.475 266.729Z" fill="#00ADB5" stroke="black" stroke-width="1.64486"/>
<path d="M247.815 485.699C280.697 463.83 266.975 388.259 262.297 366.773C261.455 362.907 260.209 359.199 258.697 355.543C246.268 325.497 215.604 301.296 186.236 315.254C123.682 344.983 132.982 439.813 133.572 486.41L247.815 485.699Z" fill="#EEEEEE" stroke="black" stroke-width="1.64486" stroke-linejoin="round"/>
<path d="M346.72 383.443L320.327 351.237L231.403 413.452L202.662 355.6L165.446 413.451C165.446 413.451 205.763 476.069 226.244 474.25C263.567 470.934 346.72 383.443 346.72 383.443Z" fill="#EEEEEE"/>
<path d="M204.633 359.823L231.154 411.678L320.329 351.239L346.721 383.446C346.721 383.446 268.334 470.396 222.527 474.465C208.11 475.745 166.108 412.827 166.108 412.827" stroke="black" stroke-width="1.64486"/>
<path d="M329.103 345.427L318.65 352.135L344.89 385.38L353.143 378.694C361.924 371.581 363.315 358.713 356.257 349.888C349.683 341.667 337.962 339.741 329.103 345.427Z" fill="#F5B9AB" stroke="black" stroke-width="1.64486" stroke-linejoin="round"/>
<path d="M312.643 711.057L267.517 734.583L275.279 763.983L335.534 726.877L317.804 729.285L312.643 711.057Z" fill="#EEEEEE" stroke="black" stroke-width="1.39887" stroke-linejoin="round"/>
</svg>
