<svg width="348" height="344" viewBox="0 0 348 344" fill="none" xmlns="http://www.w3.org/2000/svg">
<path d="M114.665 90.0586C113.131 92.0943 106.544 100.241 112.156 102.085C113.898 102.657 116.165 101.341 118.042 101.531C120.697 101.8 122.189 104.141 122.842 106.571C123.594 109.37 119.445 114.347 121.44 115.852C124.856 118.429 129.776 114.071 132.599 117.532C134.199 119.493 132.517 122.343 133.508 117.716" stroke="#00ADB5" stroke-linecap="round" stroke-linejoin="round"/>
<path d="M191.703 58.3405C193.182 60.3724 196.7 64.9498 198.024 67.5597C199.15 69.7813 197.731 69.6922 196.523 68.8095C195.078 67.7539 195.281 65.5089 195.693 63.954C197.085 58.7047 206.092 53.8789 207.11 61.9462C207.467 64.7799 205.025 69.5447 201.698 68.4202C197.305 66.9357 197.585 59.9825 200.907 57.398C204.306 54.7546 209.875 57.7921 209.875 62.1101C209.875 66.9041 204.381 68.3883 202.251 64.1588C200.314 60.3148 203.746 56.2937 207.426 55.7181C208.779 55.5064 212.275 57.1281 209.835 57.9717" stroke="#00ADB5" stroke-linecap="round" stroke-linejoin="round"/>
<path d="M266.012 94.8483C263.71 97.221 256.434 102.753 262.556 104.908C266.118 106.161 269.415 104.106 271.622 101.302C274.057 98.2073 274.47 93.3138 270.595 91.304C267.581 89.7408 264.983 87.23 262.457 91.1606" stroke="#00ADB5" stroke-linecap="round" stroke-linejoin="round"/>
<path d="M344.584 127.298C340.188 130.015 333.513 133.295 340.318 135.862C341.364 136.257 342.045 136 342.964 135.329C346.366 132.85 346.566 131.857 346.362 128.036C346.226 125.506 342.66 126.084 341.029 126.93C338.624 128.177 336.946 130.673 335.972 133.199C334.662 136.597 341.437 136.39 342.372 132.297C342.958 129.732 340.129 126.087 338.185 129.224C335.609 133.38 339.539 137.096 342.016 132.748C344.389 128.583 338.845 126.865 337.355 131.724C335.396 138.111 347.043 131.176 342.806 128.978C340.281 127.669 336.017 135.986 340.673 133.916C346.327 131.402 340.002 127.699 340.002 133.568C340.002 138.33 347.596 131.418 342.648 129.552C341.517 129.125 340.401 132.875 341.207 133.711C342.608 135.165 345.044 131.4 344.92 130.044C344.386 124.224 338.893 139.02 345.433 132.236C346.927 130.686 346.866 127.886 344.387 129.532C342.923 130.503 341.998 134.626 344.762 133.67C347.417 132.752 347.416 127.652 344.564 128.835C342.824 129.557 342.194 132.113 340.318 131.724" stroke="#00ADB5" stroke-linecap="round" stroke-linejoin="round"/>
<path d="M306.185 165.281C305.451 166.122 293.736 181.114 299.627 173.476C300.975 171.729 302.212 170.011 304.052 168.785C305.186 168.029 306.278 167.562 307.252 166.551C308.316 165.447 306.807 165.52 306.56 167.822C306.346 169.826 306.51 178.577 306.185 178.557C303.989 178.423 302.549 176.181 300.516 175.443C299.427 175.048 296.198 175.617 297.099 174.869C299.301 173.042 306.046 167.802 304.052 169.87C302.541 171.437 299.436 177.326 300.496 175.402C301.25 174.034 303.289 169.576 302.985 170.321C302.36 171.857 301.272 174.487 301.366 176.18C301.454 177.788 304.532 173.833 304.723 173.435C306.15 170.476 303.198 177.131 304.249 175.545C305.196 174.117 308.396 170.486 306.106 174.05C305.605 174.83 308.479 171.232 307.963 172.001C307.813 172.224 306.51 174.491 307.271 173.702C309.997 170.874 305.981 173.814 305.474 173.025" stroke="#00ADB5" stroke-linecap="round" stroke-linejoin="round"/>
<path d="M282.366 226.499C283.61 224.661 290.722 216.551 284.874 216.194C283.886 216.134 281.848 215.801 281.022 216.501C279.06 218.167 279.911 222.66 282.563 223.16C286.08 223.823 289.376 218.834 285.565 216.911C281.584 214.902 272.185 222.972 276.242 226.294C284.231 232.836 291.455 213.826 281.121 216.563C271.748 219.045 280.006 229.059 284.262 222.607C288.819 215.699 274.767 215.639 277.25 223.365C278.474 227.175 282.493 225.336 283.215 222.258C284.273 217.747 279.947 219.61 279.877 222.73C279.802 226.073 284.769 220.023 281.793 220.292C279.642 220.486 279.43 223.549 277.744 223.549" stroke="#00ADB5" stroke-linecap="round" stroke-linejoin="round"/>
<path d="M140.865 191.84C141.583 195.219 142.998 205.442 142.998 201.982C142.998 199.593 141.239 197.364 140.884 194.975C140.761 194.14 141.016 191.671 140.331 191.103C139.863 190.714 144.29 194.288 145.467 194.975C147.614 196.228 149.153 198.567 151.017 196.081C151.912 194.888 154.545 194.723 154.908 194.422C157.541 192.237 157.299 188.977 157.911 186.124C158.128 185.107 157.575 189.598 157.575 190.918C157.575 192.608 157.869 194.843 158.306 196.43C158.926 198.682 158.678 192.325 158.088 191.103C157.131 189.117 157.219 187.354 157.219 185.203C157.219 184.353 163.163 195.002 162.118 195.815C161.681 196.155 155.861 194.49 154.098 195.077C152.58 195.584 151.193 196.174 149.753 196.921C149.359 197.125 148.71 197.869 148.963 197.659C149.866 196.91 152.627 194.862 151.531 195.241C150.024 195.762 148.545 197.274 147.185 198.109C144.623 199.685 143.794 199.465 142.721 202.166C142.567 202.555 144.48 202.506 144.855 202.617C147.545 203.414 149.236 201.24 151.61 200.24C154.673 198.949 158.196 196.298 161.486 195.897C163.969 195.594 160.193 194.691 160.064 194.422" stroke="#00ADB5" stroke-linecap="round" stroke-linejoin="round"/>
<path d="M276.675 49.8633C283.376 47.6354 294.228 45.0731 300.219 39.9884C301.307 39.0658 302.99 38.1814 302.609 36.4032C301.178 29.7229 298.064 28.1562 291.924 28.8639C288.518 29.2564 285.249 32.5149 282.087 33.8423C278.832 35.2088 275.576 37.0042 272.606 38.9641C269.601 40.9477 271.342 41.9303 271.342 45.3561C271.342 47.2399 272.427 49.8633 274.364 49.8633C275.247 49.8633 277.778 49.1258 275.273 49.1258C273.307 49.1258 270.255 49.4348 268.498 48.4702C267.157 47.7335 269.805 46.2831 270.434 46.1961C272.681 45.8853 267.859 48.1653 267.372 48.3268C266.371 48.6589 270.983 45.0339 268.419 45.8888C265.64 46.8154 269.765 44.3305 270.631 43.881C271.609 43.3737 270.756 44.1769 270.987 43.7581C271.356 43.088 273.493 40.6262 271.56 42.6313C270.912 43.3026 273.02 41.4864 273.732 40.8899C275.073 39.7664 273.372 41.4709 273.041 41.7503C271.516 43.0379 271.159 41.999 269.92 42.5698C269.403 42.8085 268.143 43.5999 268.143 42.6723C268.143 41.0717 273.587 40.3426 274.582 40.2958C280.671 40.0086 284.933 37.2223 290.541 35.7681C293.24 35.0683 296.189 34.0604 298.718 32.8179C300.594 31.8964 304.351 29.0113 306.343 29.6014C307.125 29.8333 295.052 37.1194 298.521 34.7437C301.39 32.7785 304.68 31.3985 300.377 35.092C296.93 38.0509 302.995 34.6044 303.479 34.8052C304.348 35.1659 298.125 38.8523 302.866 36.5876C304.679 35.7214 306.185 35.6786 306.185 33.6374C306.185 30.8666 306.915 27.5825 303.518 28.8639C299.598 30.3425 296.451 33.503 292.398 34.7437C289.603 35.599 286.881 36.679 284.141 37.6939C280.963 38.8714 275.209 40.1882 272.942 43.0615C271.734 44.5929 269.583 50.5607 274.029 47.9785C278.107 45.6096 278.756 40.817 280.942 37.0383C282.027 35.1614 279.05 41.0025 278.611 43.1435C278.107 45.6059 280.341 48.4397 282.897 47.9785C285.701 47.4726 288.651 43.4558 289.652 41.0128C294.463 29.2709 285.736 40.6594 288.21 43.2254C290.836 45.9486 294.837 38.7347 295.361 36.9563C295.992 34.8136 296.363 32.1723 297.118 30.1341C298.099 27.4906 291.84 30.4678 291.252 30.7692C287.997 32.4379 285.724 34.6638 283.509 37.6119C282.708 38.679 279.49 43.7019 281.692 44.8439C284.643 46.3745 288.267 41.6172 288.349 39.1485C288.627 30.7856 281.988 35.0716 277.979 38.3495C275.502 40.3749 277.654 44.4231 278.097 43.963" stroke="#00ADB5" stroke-linecap="round" stroke-linejoin="round"/>
<path d="M186.724 249.73C186.569 249.858 180.719 255.092 180.719 253.603C180.719 252.73 181.367 251.796 181.944 251.226C183.085 250.099 187.592 249.231 186.507 251.984C185.778 253.83 182.803 256.551 181.964 253.07C181.615 251.624 184.007 248.723 185.46 249.956C187.061 251.315 183.618 253.047 182.536 252.435C180.604 251.342 182.925 247.45 184.788 248.255C186.737 249.098 184.057 251.4 183.168 251.861C181.092 252.938 181.383 251.197 180.324 250.099" stroke="#00ADB5" stroke-linecap="round" stroke-linejoin="round"/>
<path d="M90.3772 249.359C92.4266 252.862 96.33 256.497 92.3524 259.685C91.3264 260.507 85.2742 263.795 85.6368 259.972C86.0783 255.316 92.7678 255.212 93.1819 251.039C93.5915 246.912 84.0893 248.467 81.9234 245.671C80.5666 243.92 79.4724 240.039 79.7902 237.804C79.914 236.934 82.0417 235.245 81.8246 236.821C81.4273 239.706 72.4586 247.097 77.7755 249.523C81.3403 251.15 82.26 247.031 84.8862 246.04C90.2957 244 82.1999 259.133 82.1999 255.26" stroke="#00ADB5" stroke-linecap="round" stroke-linejoin="round"/>
<path d="M264.588 297.303C262.942 301.345 259.611 313.799 259.611 309.411C259.611 308.728 259.738 308.187 259.966 307.547C261.037 304.543 262.276 301.747 264.075 299.106C265.057 297.665 266.227 293.445 267.63 296.648C268.285 298.142 270.158 302.302 269.368 303.941C268.377 305.998 265.298 307.178 263.245 307.26C262.711 307.282 257.102 308.046 258.92 306.318C261.055 304.287 263.122 298.111 266.346 297.693C266.844 297.628 267.884 297.973 268.321 298.225C269.092 298.669 268.153 299.471 267.788 300.09C267.35 300.832 263.884 305.847 263.877 305.621C263.779 302.261 267.103 297.382 268.894 294.845C269.537 293.935 266.119 300.11 265.339 301.503C264.735 302.581 265.523 304.873 262.811 304.31" stroke="#00ADB5" stroke-linecap="round" stroke-linejoin="round"/>
<path d="M154.373 0.812012C152.787 7.24867 151.373 13.3815 150.798 19.9471C150.74 20.6039 150.34 21.0284 150.739 21.5451C151.332 22.314 152.9 17.425 153.504 16.116C155.417 11.9669 157.573 10.3294 157.573 5.23726C157.573 4.50249 157.573 0.27341 157.573 3.06561C157.573 5.43616 158.006 7.77906 157.849 10.1542C157.731 11.9494 156.069 16.7942 157.296 15.5219C159.19 13.5579 157.673 3.71106 154.709 3.45487C150.663 3.10517 148.712 12.2008 148.25 15.0302C147.712 18.3221 149.949 19.7003 152.417 17.1404C155.786 13.6463 156.517 6.46287 153.622 2.36904C149.646 -3.2552 147.037 6.89286 146.709 9.37569C145.969 14.992 148.993 16.7917 152.575 12.7971C153.893 11.3278 156.55 8.78734 155.993 6.50747C155.251 3.47485 150.93 6.41968 150.067 7.73671C148.844 9.60423 148.86 14.2559 150.837 15.5833C152.684 16.8227 154.481 11.6873 154.274 10.4001C153.397 4.94079 143.476 13.6071 148.408 16.7101C152.7 19.4108 155.546 7.32848 150.264 8.82253C148.794 9.2386 145.301 13.3502 148.329 13.3502" stroke="#00ADB5" stroke-linecap="round" stroke-linejoin="round"/>
<path d="M60.1585 105.91C58.5609 110.605 57.4107 113.602 53.3639 116.236C52.3478 116.897 51.005 118.067 50.7961 119.391C50.3498 122.22 54.652 125.337 57.097 124.492C62.2487 122.711 54.453 117.422 53.6206 115.887C52.1715 113.215 57.4091 108.415 59.8227 109.823C61.7014 110.919 62.5343 114.739 61.4226 116.605C59.8032 119.322 56.3224 119.429 53.6009 119.002C51.4335 118.661 47.0921 119.124 48.3667 122.464C49.9615 126.643 57.4888 124.453 58.6179 120.907C59.7171 117.455 53.7661 116.154 55.0428 112.917C55.9197 110.693 58.6887 107.918 61.1461 107.918C64.0896 107.918 61.15 113.621 60.7115 114.515C58.7752 118.463 55.8124 118.856 52.0603 119.923C44.9983 121.932 52.6061 122.215 53.0478 119.923" stroke="#00ADB5" stroke-linecap="round" stroke-linejoin="round"/>
<path d="M51.6246 156.434C50.8699 159.382 48.6385 164.413 48.8594 167.62C48.9628 169.123 49.3587 164.65 49.5309 163.154C49.8591 160.303 50.2345 157.084 51.7036 154.59C51.9644 154.148 57.9943 161.955 58.5377 163.236C59.9921 166.664 58.1713 166.012 55.891 167.129C54.6237 167.749 45.9756 170.916 45.9756 170.079C45.9756 169.202 47.606 167.419 47.9903 166.678C49.1932 164.357 50.4838 161.442 50.9925 158.852C52.0791 153.319 51.2691 164.705 51.2691 165.572C51.2691 166.098 51.4663 169.177 50.2815 169.177C48.7987 169.177 51.2839 166.282 51.7826 164.834C52.3115 163.298 54.4166 158.771 53.8961 157.151C53.1588 154.857 52.7899 161.884 52.711 164.301C52.6574 165.939 51.8932 168.674 53.1257 166.022C53.5185 165.177 54.7863 161.713 54.7651 161.966C54.5864 164.098 53.7578 166.296 53.7578 168.44C53.7578 170.634 54.8737 163.57 56.7996 162.662C57.2784 162.437 56.6021 166.601 56.6021 167.211C56.6021 168.321 57.6292 162.945 57.6292 164.055C57.6292 164.365 57.203 166.235 56.8786 165.653C55.549 163.271 54.5486 161.799 51.8221 160.941C50.5804 160.551 46.6334 160.818 47.931 160.818C48.784 160.818 50.1236 157.74 51.0716 158.544C52.3293 159.612 50.6032 163.019 50.2025 164.178C49.5464 166.077 49.1356 163.407 50.7555 163.605C52.4434 163.811 50.7214 170.275 51.6641 168.809C52.1017 168.128 53.427 164.769 53.3825 165.162C52.5219 172.749 52.701 163.087 54.1133 165.285" stroke="#00ADB5" stroke-linecap="round" stroke-linejoin="round"/>
<path d="M227.614 56.1265C232.138 55.8947 236.506 57.6293 235.791 52.07C235.437 49.3152 233.949 44.8117 234.725 42.1132C235.549 39.2482 240.606 32.7871 236.285 30.7632C232.662 29.0661 227.927 33.8654 227.259 37.1143C226.981 38.4655 227.04 42.6868 229.194 42.6868C230.822 42.6868 231.862 41.0289 233.283 42.5024C235.14 44.4288 235.472 46.186 234.152 48.6076C230.984 54.4205 218.453 47.9278 225.204 40.9249C226.13 39.965 229.79 35.5629 231.525 36.8275C233.912 38.5672 233.589 43.0967 232.355 45.3502C231.124 47.5973 226.606 49.9503 224.829 47.0711C223.951 45.6482 224.371 44.6946 225.836 44.6946" stroke="#00ADB5" stroke-linecap="round" stroke-linejoin="round"/>
<path d="M265.488 90.637C265.905 90.4621 278.912 83.8021 278.307 87.4615C277.982 89.4255 278.199 91.257 278.465 93.2184C278.567 93.9687 280.33 99.8153 278.564 99.8153C275.273 99.8153 272.061 98.1012 268.767 98.75C267.401 99.019 264.681 99.9897 264.579 97.7256C264.503 96.028 263.143 88.3962 266.377 89.1415C269.042 89.7557 269.158 87.5619 267.266 92.4399C266.997 93.1324 265.232 98.3354 265.528 98.0944C268.485 95.6842 270.107 91.0495 272.816 88.24C274.507 86.4856 271.608 93.527 271.256 94.4067C269.456 98.9008 274.056 90.598 274.574 89.7766C276.847 86.1699 275.121 92.6268 274.771 93.6896C273.72 96.8848 276.953 90.9186 278.248 90.1248C282.538 87.495 278.485 96.5782 277.576 94.6935" stroke="#00ADB5" stroke-linecap="round" stroke-linejoin="round"/>
<path d="M230.457 160.125C230.661 165.545 230.57 168.502 235 165.083C236.257 164.113 235.723 166.408 235.415 166.968C234.9 167.902 231.881 172.6 234.921 170.799C235.69 170.343 237.765 169.432 237.765 171.188C237.765 171.465 236.835 174.857 237.745 173.913C239.238 172.365 239.264 166.531 239.345 164.263C239.363 163.769 239.571 163.193 239.148 163.444C236.968 164.736 235.934 171.498 234.802 174.138C233.826 176.417 231.01 173.732 229.39 172.663C226.32 170.637 228.251 172.076 228.324 171.926" stroke="#00ADB5" stroke-linecap="round" stroke-linejoin="round"/>
<path d="M205.927 208.435C205.913 208.607 205.496 219.194 205.571 214.049C205.594 212.479 205.55 210.907 205.571 209.337C205.63 204.877 206.397 206.946 208.257 208.784C209.11 209.626 212.239 211.444 211.734 213.148C211.585 213.649 206.562 214.556 205.769 214.868C205.173 215.103 201.66 217.397 201.66 217.286C201.66 214.546 202.591 211.58 202.905 208.845C203.569 203.053 207.433 218.558 207.684 214.643C207.744 213.721 207.704 208.236 207.704 209.603C207.704 210.622 208.415 216.053 208.415 212.492C208.415 211.686 208.415 210.88 208.415 210.074C208.415 209.694 208.615 211.513 208.751 211.16C209.244 209.883 208.415 207.314 208.415 210.443C208.415 213.956 207.466 211.427 205.393 211.427C203.62 211.427 202.605 218.166 203.517 216.589C204.316 215.208 202.742 209.583 203.438 212.471C203.802 213.983 204.678 212.312 205.215 211.754" stroke="#00ADB5" stroke-linecap="round" stroke-linejoin="round"/>
<rect x="102.783" y="263.596" width="38.4308" height="79.3212" rx="3.51536" fill="#00ADB5" stroke="black" stroke-width="1.64486" stroke-linejoin="round"/>
<rect x="2.24707" y="286.502" width="38.4308" height="56.4165" rx="3.51536" fill="#EEEEEE" stroke="black" stroke-width="1.64486" stroke-linejoin="round"/>
<rect x="180.567" y="175.666" width="38.4308" height="167.251" rx="3.51536" fill="#00ADB5" stroke="black" stroke-width="1.64486" stroke-linejoin="round"/>
<path d="M53.2038 155.306L92.7169 155.306C92.7169 155.306 86.4195 212.856 77.8489 222.291C69.2783 231.727 24.4228 257.603 24.4228 257.603L9.31666 248.332L37.4776 203.981C37.4776 203.981 34.3807 186.687 53.2038 155.306Z" fill="#00ADB5" stroke="black" stroke-width="1.39887"/>
<path d="M25.0612 257.081L9.31635 248.331L1.34778 256.91C1.34778 256.91 14.781 264.697 24.1531 267.748L20.1838 262.513L25.0612 257.081Z" fill="#EEEEEE" stroke="black" stroke-width="1.39887" stroke-linejoin="round"/>
<path d="M53.3725 154.465L96.5455 154.408C96.5455 154.408 120.545 175.513 123.569 187.896C126.593 200.279 123.145 245.218 123.145 245.218L105.695 252.932L87.6811 205.467C87.6811 205.467 68.8468 187.625 53.3725 154.465Z" fill="#00ADB5"/>
<path d="M53.3725 154.465L53.3716 153.765C53.1327 153.766 52.9105 153.888 52.7823 154.09C52.6541 154.291 52.6377 154.544 52.7387 154.761L53.3725 154.465ZM96.5455 154.408L97.0074 153.883L96.8089 153.708L96.5446 153.709L96.5455 154.408ZM123.145 245.218L123.427 245.857L123.81 245.688L123.842 245.271L123.145 245.218ZM105.695 252.932L105.041 253.181L105.303 253.87L105.978 253.572L105.695 252.932ZM87.6811 205.467L88.3351 205.218L88.2783 205.069L88.1622 204.959L87.6811 205.467ZM53.3734 155.164L96.5464 155.107L96.5446 153.709L53.3716 153.765L53.3734 155.164ZM122.862 244.578L105.413 252.293L105.978 253.572L123.427 245.857L122.862 244.578ZM106.349 252.684L88.3351 205.218L87.0272 205.715L105.041 253.181L106.349 252.684ZM87.6811 205.467C88.1622 204.959 88.1622 204.959 88.1622 204.959C88.1621 204.959 88.162 204.959 88.1618 204.958C88.1614 204.958 88.1607 204.957 88.1597 204.957C88.1578 204.955 88.1547 204.952 88.1505 204.948C88.1421 204.94 88.1292 204.927 88.1118 204.911C88.0771 204.877 88.0246 204.826 87.9552 204.758C87.8163 204.622 87.6093 204.417 87.3395 204.144C86.8001 203.597 86.0099 202.777 85.0122 201.688C83.0167 199.511 80.1917 196.259 76.8833 191.973C70.2662 183.401 61.718 170.695 54.0063 154.169L52.7387 154.761C60.5012 171.395 69.1074 184.189 75.776 192.828C79.1105 197.148 81.9612 200.429 83.9808 202.633C84.9906 203.735 85.7927 204.568 86.3437 205.126C86.6192 205.406 86.832 205.616 86.9765 205.758C87.0488 205.829 87.104 205.882 87.1415 205.918C87.1602 205.936 87.1746 205.95 87.1844 205.959C87.1893 205.964 87.193 205.968 87.1957 205.97C87.197 205.971 87.198 205.972 87.1988 205.973C87.1991 205.973 87.1995 205.974 87.1997 205.974C87.1999 205.974 87.2001 205.974 87.6811 205.467ZM96.5455 154.408C96.0836 154.933 96.0837 154.933 96.0838 154.933C96.0839 154.934 96.0842 154.934 96.0845 154.934C96.0851 154.935 96.0861 154.935 96.0875 154.937C96.0903 154.939 96.0945 154.943 96.1001 154.948C96.1113 154.958 96.1282 154.973 96.1506 154.992C96.1955 155.032 96.2624 155.092 96.3499 155.17C96.5251 155.326 96.7829 155.558 97.1125 155.857C97.7716 156.455 98.7174 157.325 99.8622 158.407C102.152 160.573 105.236 163.587 108.412 166.986C111.59 170.386 114.852 174.161 117.503 177.848C120.165 181.549 122.167 185.101 122.89 188.062L124.249 187.73C123.46 184.5 121.327 180.769 118.639 177.031C115.94 173.278 112.634 169.455 109.434 166.031C106.233 162.605 103.128 159.57 100.823 157.391C99.6708 156.301 98.718 155.425 98.0528 154.821C97.7202 154.519 97.4595 154.285 97.2816 154.126C97.1926 154.047 97.1244 153.986 97.0782 153.945C97.0552 153.925 97.0376 153.909 97.0257 153.899C97.0198 153.894 97.0153 153.89 97.0122 153.887C97.0107 153.886 97.0095 153.885 97.0087 153.884C97.0083 153.884 97.008 153.883 97.0078 153.883C97.0075 153.883 97.0074 153.883 96.5455 154.408ZM122.89 188.062C123.625 191.073 123.977 196.132 124.079 202.088C124.181 208.025 124.034 214.789 123.792 221.174C123.55 227.558 123.214 233.556 122.938 237.959C122.8 240.16 122.677 241.962 122.589 243.213C122.545 243.839 122.509 244.327 122.485 244.658C122.473 244.824 122.463 244.951 122.457 245.036C122.454 245.078 122.451 245.11 122.45 245.132C122.449 245.143 122.448 245.151 122.448 245.156C122.448 245.159 122.447 245.161 122.447 245.162C122.447 245.163 122.447 245.163 122.447 245.164C122.447 245.164 122.447 245.164 123.145 245.218C123.842 245.271 123.842 245.271 123.842 245.271C123.842 245.27 123.842 245.27 123.842 245.269C123.842 245.268 123.842 245.265 123.843 245.263C123.843 245.257 123.844 245.249 123.844 245.238C123.846 245.216 123.849 245.184 123.852 245.141C123.858 245.055 123.868 244.928 123.88 244.761C123.905 244.428 123.94 243.939 123.985 243.312C124.073 242.057 124.196 240.251 124.334 238.046C124.61 233.636 124.947 227.626 125.19 221.227C125.432 214.829 125.58 208.037 125.478 202.065C125.376 196.113 125.025 190.91 124.249 187.73L122.89 188.062Z" fill="black"/>
<path fill-rule="evenodd" clip-rule="evenodd" d="M91.239 84.0615C92.2202 83.7032 93.1545 83.1799 94.0072 82.4535C100.449 76.9655 97.6866 68.6857 93.7882 64.3751C89.8898 60.0644 66.0416 61.7839 77.2917 81.7533C77.3401 81.7825 77.3895 81.8119 77.4399 81.8415C78.6962 85.8425 77.6357 89.2746 76.3633 93.3925C75.8442 95.0724 75.2898 96.8665 74.8431 98.8598L86.7747 98.0049C90.0542 93.5517 91.2976 89.0628 91.239 84.0615Z" fill="#F5B9AB"/>
<path d="M94.0072 82.4535L94.5405 83.0795L94.0072 82.4535ZM91.239 84.0615L90.957 83.2889C90.6292 83.4086 90.4126 83.7221 90.4167 84.0711L91.239 84.0615ZM93.7882 64.3751L94.3982 63.8234L94.3982 63.8234L93.7882 64.3751ZM77.2917 81.7533L76.5751 82.157C76.6449 82.2808 76.7456 82.3845 76.8673 82.4578L77.2917 81.7533ZM77.4399 81.8415L78.2245 81.5951C78.1634 81.4005 78.0322 81.2355 77.8563 81.1322L77.4399 81.8415ZM76.3633 93.3925L75.5775 93.1497L75.5775 93.1497L76.3633 93.3925ZM74.8431 98.8598L74.0406 98.68C73.9837 98.9337 74.0502 99.1994 74.2199 99.3965C74.3896 99.5935 74.6425 99.6987 74.9019 99.6801L74.8431 98.8598ZM86.7747 98.0049L86.8335 98.8252C87.0737 98.808 87.2942 98.6864 87.437 98.4926L86.7747 98.0049ZM93.4738 81.8275C92.7002 82.4866 91.8522 82.9621 90.957 83.2889L91.5211 84.834C92.5882 84.4444 93.6089 83.8733 94.5405 83.0795L93.4738 81.8275ZM93.1782 64.9267C95.0317 66.9762 96.6077 69.9685 96.958 73.0652C97.3039 76.124 96.4604 79.283 93.4738 81.8275L94.5405 83.0795C97.9955 80.136 98.9917 76.4111 98.5924 72.8804C98.1974 69.3875 96.4431 66.0846 94.3982 63.8234L93.1782 64.9267ZM78.0082 81.3496C75.251 76.4555 74.728 72.825 75.3735 70.2038C76.0135 67.6048 77.8471 65.8216 80.2112 64.7025C82.5868 63.578 85.4416 63.1576 87.9421 63.285C89.1889 63.3486 90.3227 63.5473 91.2442 63.8472C92.1808 64.152 92.8269 64.5382 93.1782 64.9267L94.3982 63.8234C93.775 63.1343 92.823 62.6312 91.7532 62.2831C90.6682 61.9299 89.3873 61.7117 88.0258 61.6423C85.31 61.5039 82.1748 61.9532 79.5074 63.2158C76.8284 64.484 74.5656 66.6054 73.7764 69.8105C72.9926 72.9934 73.7073 77.0664 76.5751 82.157L78.0082 81.3496ZM77.8563 81.1322C77.8086 81.1042 77.7618 81.0764 77.716 81.0488L76.8673 82.4578C76.9185 82.4886 76.9705 82.5196 77.0234 82.5507L77.8563 81.1322ZM77.1491 93.6353C78.4108 89.5519 79.5688 85.8761 78.2245 81.5951L76.6552 82.0878C77.8236 85.8088 76.8606 88.9973 75.5775 93.1497L77.1491 93.6353ZM75.6457 99.0397C76.0842 97.0825 76.6291 95.3179 77.1491 93.6353L75.5775 93.1497C75.0593 94.8269 74.4954 96.6504 74.0406 98.68L75.6457 99.0397ZM86.716 97.1846L74.7843 98.0395L74.9019 99.6801L86.8335 98.8252L86.716 97.1846ZM90.4167 84.0711C90.4733 88.9068 89.2784 93.2182 86.1125 97.5172L87.437 98.4926C90.8301 93.8851 92.1219 89.2187 92.0614 84.0518L90.4167 84.0711Z" fill="black"/>
<path d="M75.1481 69.6863C73.281 72.2839 75.292 78.6995 76.7758 80.3041C64.4811 73.4822 72.2647 58.0904 76.0582 60.8972C76.6764 55.2067 83.2061 53.1989 87.6573 58.0116C98.8173 48.9992 99.4044 64.3561 95.4654 66.6915C91.5263 69.0269 86.7473 66.8029 84.2671 68.0072C81.7869 69.2115 80.2564 76.5064 79.453 72.4576C78.6496 68.4088 77.4819 66.4393 75.1481 69.6863Z" fill="#00ADB5" stroke="black" stroke-width="1.64486"/>
<path d="M97.984 155.393C110.852 146.834 105.482 117.259 103.651 108.85C103.322 107.337 102.834 105.886 102.243 104.455C97.3783 92.6959 85.3777 83.2247 73.8842 88.687C49.4029 100.322 53.0424 137.435 53.2735 155.671L97.984 155.393Z" fill="#EEEEEE" stroke="black" stroke-width="1.64486" stroke-linejoin="round"/>
<path d="M136.694 115.374L126.365 102.769L91.5638 127.118L80.3156 104.477L65.7507 127.118C65.7507 127.118 81.5294 151.624 89.5448 150.912C104.152 149.614 136.694 115.374 136.694 115.374Z" fill="#EEEEEE"/>
<path d="M81.0815 106.126L91.4609 126.42L126.36 102.767L136.689 115.371C136.689 115.371 106.012 149.4 88.0846 150.992C82.4424 151.494 66.0043 126.87 66.0043 126.87" stroke="black" stroke-width="1.64486"/>
<path d="M129.795 100.495L125.704 103.121L135.973 116.132L139.203 113.515C142.64 110.731 143.184 105.695 140.422 102.241C137.849 99.024 133.262 98.2704 129.795 100.495Z" fill="#F5B9AB" stroke="black" stroke-width="1.64486" stroke-linejoin="round"/>
<path d="M123.358 243.578L105.697 252.786L108.735 264.292L132.316 249.77L125.377 250.712L123.358 243.578Z" fill="#EEEEEE" stroke="black" stroke-width="1.39887" stroke-linejoin="round"/>
</svg>
